<svg id="Layer_5" data-name="Layer 5" xmlns="http://www.w3.org/2000/svg" viewBox="0 0 552.07 426.23"><defs><style>.cls-1{fill:#ffa348;}.cls-2{fill:#858fa9;}.cls-3,.cls-7{fill:#dcdde0;}.cls-4{fill:#414355;}.cls-5{fill:#2a9cc8;}.cls-6,.cls-9{fill:#fcc18b;}.cls-7{stroke:#dcdde0;}.cls-7,.cls-9{stroke-miterlimit:10;}.cls-8{fill:#fff;}.cls-9{stroke:#ffa348;}.cls-10{font-size:8px;font-family:Lato-Thin, Lato;font-weight:200;opacity:0.5;}.cls-11{letter-spacing:-0.01em;}.cls-12{letter-spacing:-0.01em;}.cls-13{letter-spacing:-0.03em;}.cls-14{letter-spacing:-0.01em;}</style></defs><title>5illus-carte-mentale-2019</title><path class="cls-1" d="M322.43,280.18c-.39-2-2.91-3.21-4.55-3.88a46.12,46.12,0,0,0-8.23-2.3c-3-.61-6.09-1.64-9.18-1.58a.59.59,0,0,0-1,.2c-1.77.38-2.38,2.22-2.73,3.95-.32,1.54-1.22,5.94,0,7.2A4.92,4.92,0,0,0,300,285c2.35.22,4.69-.26,7.07,0,4,.43,8.43,1.22,12.4,0A4.38,4.38,0,0,0,322.43,280.18Z" transform="translate(-211.45 -72.45)"/><path class="cls-1" d="M347.58,261.17a17.74,17.74,0,0,0-5.17-.77,13.32,13.32,0,0,1-6-2c-3.49-1.95-7.87-2-8.72,2.49a.3.3,0,0,0-.22.18c-.38.67-2.88,3.21-2.18,4.14,1.24,1.64,5,1.66,6.82,2a43.24,43.24,0,0,0,10.42,0c1.61-.13,5.42-.17,6.58-1.84S349.58,261.92,347.58,261.17Z" transform="translate(-211.45 -72.45)"/><path class="cls-2" d="M337.65,239.52c-.76-6.35-1.29-13.47-3.77-19.41-1.77-4.23-5.42-7.21-9-9.91-2.15-1.63-4.31-3.23-6.32-5s-5.11-4.81-5.74-7.62c-.48-2.12-4.83-2.62-6.43-2.92a68.23,68.23,0,0,0-12.69-1,45.59,45.59,0,0,0-5.23.3c-1.36.18-2.63.77-4,.86-2.42.15-6.05-1.33-7.74,1.2a9.33,9.33,0,0,0-1.15,5.17.46.46,0,0,0,.13.34c0,12.54,4.6,24.79,7.74,36.8,1.79,6.84,3.43,13.73,5.22,20.58a94.84,94.84,0,0,0,3.16,10c1,2.67,2.82,5.35,3.85,8,.78,2,4,1.56,7.78.37,3.17-1,5.77-1,6-2.5.17-1.1-4.29-14.79-5.3-18.12a82.3,82.3,0,0,1-2.32-11.55c-1.08-7-1.67-14.07-2.57-21.11-.33-2.59-1-5.38-.5-8,.54-3,5.91,2.18,6.85,3,2.32,1.94,5.17,3.27,7.68,5a19.17,19.17,0,0,1,8.15,9.94,66.68,66.68,0,0,1,3.08,11.61c.73,4,1.77,8.16,2.28,12.22.28,2.19.22,3.75,2.82,3.95a29.57,29.57,0,0,0,9-1.25.65.65,0,0,0,.48-.63A191.69,191.69,0,0,0,337.65,239.52Z" transform="translate(-211.45 -72.45)"/><path class="cls-2" d="M388.75,129a37.73,37.73,0,0,0-6.67,3.75c-2,1.31-8.33,3.32-9.33,5.08-.82,1.46-.12,3.19.17,4.75.1.59,2.16,2.34,5.33,3,1.7.52,5.86-.29,7.6-.49s4.74-.87,6-2.17a1.47,1.47,0,0,0-.41-2.42c-1.25-.83-3.82-.88-5.2-1.34,1.45-1.24,4.83-2.41,6.45-3.49,1.27-.85,3-2.52,3.2-4.22C396.33,127.07,391.24,128,388.75,129Z" transform="translate(-211.45 -72.45)"/><path class="cls-3" d="M378.08,140.08c-.25-1.58-1.27-5-1.58-4.91-5.62,1.5-7,2.1-12.32,2.93-5.51.86-10.86,2.45-16.37,3.29-10.42,1.6-21.18-.33-31.47,2-1.85-.15-3.73-.11-5.58-.15-4-.1-8.07-.22-12.1-.1-9.19.28-17,4-23.76,9.91a49.86,49.86,0,0,0-7.79,8.18c-2.21,3-4.61,7.17-3.34,11,1.34,4.09,5.52,6.65,8.31,8.14a19.71,19.71,0,0,0,5.09,1.66c-.34,1.84-.5,3.25-.75,5.25-.42,3.36-.84,6.17-1.09,8.92-.84,9.29-.92,8.46,2.92,8.17,1-.08,10.87-.94,14.23-1.45,7.73-1.17,15.21-3.35,22.81-5.11a.64.64,0,0,0,.46-.61c.49-5.12.61-10.27,1.53-15.34a148.16,148.16,0,0,1,3.39-14.58c.7-2.43,1-4.93,1.83-7.33,1.33-4,3.85-4.66,7.11-5,2.57-.26,5.11-.66,7.7-.8s5.08-.14,7.59-.49c10.13-1.42,18.3-1.72,28.18-4.47,3-.83,5.59-.92,5.67-3.08A37.15,37.15,0,0,0,378.08,140.08Z" transform="translate(-211.45 -72.45)"/><path class="cls-2" d="M328.2,111a20.57,20.57,0,0,0-11.65-9.93,17.94,17.94,0,0,0-6.18-.71,12.93,12.93,0,0,0-2.69.45c-.74.19-1.58.86-2.35.87a.7.7,0,0,0-.54.29c-4.1.84-7.82,3.83-10.22,7.12a21.16,21.16,0,0,0-3.51,17.54,16.32,16.32,0,0,0,3.7,6.93c2.09,2.36,4.93,3.58,7.24,5.64,2.12,1.89,1.86,4.82,2.63,7.31.64,2.06,2.49,2.92,4.5,3.2a5.38,5.38,0,0,0,4.74-1.87,6.91,6.91,0,0,0,1.34-2.68,9.45,9.45,0,0,1,3.47-4.56c2.19-1.67,4.55-2.75,6.46-4.83a19.33,19.33,0,0,0,4.22-7.75C330.92,122.58,330.76,116.05,328.2,111Z" transform="translate(-211.45 -72.45)"/><path class="cls-4" d="M309.58,99.33c-3.45-.45-4.44-1.25-7.41-2.08-1.93-.54-4.55-.56-5.67,1.52-.79,1.47-.5,3.22-2.42,3.9a20.25,20.25,0,0,1-5.11.61c-2.84.13-4.21,2.26-3.77,5a4.9,4.9,0,0,1-2,5.34,9,9,0,0,0-2.91,3.82c-1.22,3.11,1.74,4.89,3.56,6.67,1.11,1.09.33,3.23.59,4.62a7.44,7.44,0,0,0,4.86,5.15c2.75.75,5.75.25,5.25-.5-.38-.57-2.08-2.5-2.5-10.41a22.76,22.76,0,0,1,3.17-11.75,19,19,0,0,1,7.75-7.75c4.33-2.09,9-2.5,11.25-2.79C314.94,100.54,310.92,99.46,309.58,99.33Z" transform="translate(-211.45 -72.45)"/><ellipse class="cls-4" cx="93.71" cy="38.22" rx="2.17" ry="2"/><ellipse class="cls-4" cx="108.71" cy="36.22" rx="2.17" ry="2"/><polygon class="cls-4" points="92.55 169.05 54.05 412.55 57.55 413.05 96.05 170.05 92.55 169.05"/><polygon class="cls-4" points="132.55 171.05 95.05 410.55 98.55 411.05 136.05 172.05 132.55 171.05"/><polygon class="cls-4" points="59.7 390.42 99.39 388.41 99.72 385.36 60.37 387.32 59.7 390.42"/><polygon class="cls-4" points="62.7 368.42 102.39 366.41 102.72 363.36 63.37 365.32 62.7 368.42"/><polygon class="cls-4" points="66.64 345.84 106.36 344.98 106.79 341.94 67.39 342.77 66.64 345.84"/><polygon class="cls-4" points="69.64 322.84 109.36 321.98 109.79 318.94 70.39 319.77 69.64 322.84"/><polygon class="cls-4" points="73.56 299.68 113.27 301.11 113.87 298.1 74.49 296.66 73.56 299.68"/><polygon class="cls-4" points="76.56 278.68 116.27 280.11 116.87 277.1 77.49 275.66 76.56 278.68"/><polygon class="cls-4" points="80.55 256.54 120.11 260.21 120.88 257.23 81.65 253.58 80.55 256.54"/><polygon class="cls-4" points="83.55 235.26 123.06 239.48 123.88 236.51 84.7 232.31 83.55 235.26"/><polygon class="cls-4" points="87.57 213.96 127.01 218.77 127.86 215.82 88.75 211.03 87.57 213.96"/><polygon class="cls-4" points="89.57 192.96 129.01 197.77 129.86 194.82 90.75 190.03 89.57 192.96"/><g id="arr_branches" data-name="arr branches"><path class="cls-5" d="M531.71,169.71c-4.38,5.53-6.86,13-10.62,19.1-4.07,6.58-9.49,12.41-15.05,17.76-5.83,5.61-12.77,9.54-19.59,13.78a77.84,77.84,0,0,0-7.77,5.29c.26-2.39,0-5.46.07-7.89.18-5.59-.71-12.19-1.25-17.75s-2.06-14.84-5.5-19.25c-1.48-1.9-2-1.06-3.75.5-2,1.75.11,14.11.5,18.25.41,4.35.53,8.89.75,13.25a57.86,57.86,0,0,1-4.79,26.43c-3.8,8.87-11.33,20.71-21.26,24.76-.11-.26-.22-.52-.32-.78-3.46-9-2.27-18.37.48-27.45,2.63-8.69,5.68-17,7.46-26A233.78,233.78,0,0,0,454.33,183a86.54,86.54,0,0,0-1.49-26.38c-1-4.63-2.52-9.16-3.93-13.68-1.35-4.32-2.27-9-4.62-12.91-2.7-4.49-9.42-5.26-9.54-.49-.25,9.75,3.95,14.22,5.75,25.5a116.53,116.53,0,0,1,1.39,26.32,44,44,0,0,0-4.89-2.17c-4.87-1.92-9.3-4.12-12.75-8.15-3.77-4.4-5.5-6.25-8.5-12.25-2.33-4.67-4.75-11.25-5.78-12.55-1.62-2-1.82-.35-4,1.3-3.25,2.5,5.27,18.18,11.81,26.92,5.35,7.13,14.56,11.86,23.54,13.44a189.74,189.74,0,0,1-2.75,20.35,112.76,112.76,0,0,1-3.13,11.85,45.75,45.75,0,0,0-8.47-4.17,86.23,86.23,0,0,0-12.91-4.14c-7.31-1.79-14.24-6.55-21-9.86-15.26-7.51-19.19-29.38-19.44-44.22a184.36,184.36,0,0,1,2.33-30c1.29-8.5,5.17-21.09,5.5-29.42.15-3.79-6.52-1.71-7.75,2a157.57,157.57,0,0,0-6,25.07,236.83,236.83,0,0,0-3,27.77c-.63,15.85,3.16,36.18,13.8,48.84,4.6,5.49,10.9,7.85,17.1,11,5.68,2.91,11.09,6.26,17,8.68,4.34,1.78,8.83,3.16,13.08,5.16a36.14,36.14,0,0,1,6.18,3.5l.18.12c-.39,1.22-.78,2.45-1.15,3.68-4.8,15.85-5,29,5,42.91,5.17,7.21,13.46,13.13,20,18.52,1.94,1.6,4.47,4.22,5.47,6.6,1.07,2.57,3.88,6.57,4,9.38.06,2.51,2.86,3.68,5.28,2.19,6-3.69,10-8.69-1.69-23.69-7.81-10.05-17.11-14.34-19.76-17-.23-.23-.44-.48-.67-.72A42.13,42.13,0,0,0,454,269a61,61,0,0,0,17.67-20.14,53.09,53.09,0,0,0,4.27-9.82c5.27-1.5,9.55-5.23,14.55-8.32,7.58-4.69,14.95-9.76,21.06-16.29a111.08,111.08,0,0,0,14.28-19.12c4-6.66,10-14.67,11.3-22.44C537.58,170.07,534,166.88,531.71,169.71Z" transform="translate(-211.45 -72.45)"/><path class="cls-5" d="M345.23,138.49c-.83-5.63-1.25-13-4.63-17.72a2.46,2.46,0,0,0-4.54,1.23c-.25,5.69,1.44,11.74,1.76,17.5.37,6.57.71,13.14,1.16,19.7.89,13,2.12,25.43.3,38.43-1.19,8.53-3.9,16.87-6.94,25a96.52,96.52,0,0,1-12.15-5.4c-6.47-3.56-10.15-8-14.19-13.94-4.33-6.33-7.67-10-9.33-13-3.08-5.53-3.34-17-6-18.74-2-1.31-5.33.27-5.07,2.91.69,7.1,1.41,14.8,5.37,20.5,5,7.16,5.79,8.09,10.67,15.33,3.69,5.49,11.87,11.3,17.77,14.26,3.15,1.59,6.93,3.46,10.66,4q-1.28,3.28-2.52,6.53c-4.25,11.16-11.06,23.69-7.92,36,1.2,4.69,7.32,3.13,7.82-1.06,1.54-12.69,6.55-23.94,11-35.84,4.69-12.67,9.06-25.31,10.53-38.8,1.36-12.4,1.61-25.13-.57-37.43Q346.68,148.24,345.23,138.49Z" transform="translate(-211.45 -72.45)"/></g><path class="cls-2" d="M472.17,438.5c-1.4,3.8-20.65,8.33-45.5,8.33s-44.35-4.57-45.34-8.5c-1.66-6.66,20.15-10.33,45-10.33S474.5,432.17,472.17,438.5Z" transform="translate(-211.45 -72.45)"/><path class="cls-6" d="M455.32,179.6l.22,0h.21a2,2,0,0,0,1.95-1.57l.12-.55c.07-.31.14-.63.23-1a7.8,7.8,0,0,1,1.38-3.65,17.77,17.77,0,0,1,1.54-1.41,2,2,0,0,0,.74-1.34,2,2,0,0,0-.43-1.47,2,2,0,0,0-2.81-.31,20.07,20.07,0,0,0-1.91,1.74c-1.59,1.62-2.06,3.88-2.45,5.69l-.18.87-.13.58A2,2,0,0,0,455.32,179.6Z" transform="translate(-211.45 -72.45)"/><path class="cls-6" d="M475.6,190.12a19.36,19.36,0,0,1-4.32-.05c-.53,0-1.06-.12-1.65-.19l-1.66-.2-.56-.06a2,2,0,0,0-.47,4l.59.07c.52.05,1,.12,1.61.19l1.72.2a26.52,26.52,0,0,0,3,.18,16.77,16.77,0,0,0,2.3-.15,2,2,0,0,0,1.67-2.25A2,2,0,0,0,475.6,190.12Z" transform="translate(-211.45 -72.45)"/><path class="cls-6" d="M462.21,188.28q-.29-.14-.57-.3a8.91,8.91,0,0,1-4.25-4.91,2,2,0,0,0-2.45-1.42,2,2,0,0,0-1.42,2.44,12.89,12.89,0,0,0,6.09,7.33c.27.16.55.31.83.45a2,2,0,0,0,.67.2h.21a2,2,0,0,0,.89-3.8Z" transform="translate(-211.45 -72.45)"/><path class="cls-6" d="M489.68,176.89a13.61,13.61,0,0,0-4-7.5,9.41,9.41,0,0,0-1.61-1.27,2,2,0,0,0-2.77.57,2,2,0,0,0-.28,1.5,2,2,0,0,0,.86,1.27,6.6,6.6,0,0,1,1,.76,9.54,9.54,0,0,1,2.83,5.25,2,2,0,0,0,1.77,1.7h.21l.29,0a2,2,0,0,0,1.69-2.27Z" transform="translate(-211.45 -72.45)"/><path class="cls-6" d="M475.8,164.89a10.24,10.24,0,0,0-2.43-.22c-.53,0-1.08,0-1.62,0h-.28c-.52,0-1,0-1.56,0-1,0-2,0-3.09.11a2,2,0,0,0-1.36.71A2,2,0,0,0,465,167a2,2,0,0,0,1.51,1.76,2,2,0,0,0,.48.06h.19c.88-.08,1.77-.09,2.74-.09.55,0,1.1,0,1.66,0h.33c.28,0,.82,0,1.39,0a8.64,8.64,0,0,1,1.45.08h.13c.21,0,.4,0,.59,0a3.47,3.47,0,0,0,1.2-.1,1.79,1.79,0,0,0,1.07-.79,1.7,1.7,0,0,0,0-1.34A2.57,2.57,0,0,0,475.8,164.89Z" transform="translate(-211.45 -72.45)"/><path class="cls-6" d="M487.56,181.37a2,2,0,0,0-2.5,1.29,11.21,11.21,0,0,1-1.76,3.51,11.75,11.75,0,0,1-1,1.15A5,5,0,0,1,481,188l-.29.13a2,2,0,0,0-1,1.13,1.94,1.94,0,0,0,.08,1.51,2,2,0,0,0,1.6,1.11h.21a1.92,1.92,0,0,0,.85-.19l.27-.12a8,8,0,0,0,2.36-1.47,14.64,14.64,0,0,0,1.38-1.57,14.89,14.89,0,0,0,2.41-4.74,1.89,1.89,0,0,0-.14-1.49A2,2,0,0,0,487.56,181.37Z" transform="translate(-211.45 -72.45)"/><path class="cls-1" d="M477.93,174.55a22.45,22.45,0,0,0-5.28-1c-5.42-.22-9.54.58-11.64,5.16-2.22,4.83,3.88,6.77,7.46,7.29,4.42.63,11.46.37,13.45-4.45C483.19,178.5,480.36,175.76,477.93,174.55Z" transform="translate(-211.45 -72.45)"/><path class="cls-6" d="M473.19,201.2h-.9a2,2,0,0,1-2-2,2,2,0,0,1,2-2h.86a30.51,30.51,0,0,0,7.57-.78,2,2,0,0,1,1,3.88A34.28,34.28,0,0,1,473.19,201.2Zm-7.88-.34-.27,0c-1.24-.17-2.5-.4-3.87-.72l-.82-.18a23.08,23.08,0,0,1-4.61-1.37,2,2,0,1,1,1.65-3.65,20.21,20.21,0,0,0,3.82,1.11l.85.19c1.25.28,2.4.5,3.52.65a2,2,0,0,1-.27,4Zm22.44-3.12a2,2,0,0,1-.94-3.78c.73-.38,1.47-.8,2.2-1.24a9.05,9.05,0,0,0,3.35-4,2,2,0,1,1,3.57,1.82,13.05,13.05,0,0,1-4.84,5.56c-.8.49-1.61,1-2.41,1.37A2.09,2.09,0,0,1,487.75,197.74ZM451,194.59a2,2,0,0,1-1.48-.65c-.3-.33-.52-.67-.79-1a14.13,14.13,0,0,1-2.69-8.36v-.21a2,2,0,1,1,4,0v.2a10.24,10.24,0,0,0,1.89,6,7.94,7.94,0,0,0,.58.72,2,2,0,0,1-1.51,3.36ZM496.22,185l-.26,0a2,2,0,0,1-1.73-2.24c.13-1,.21-2.06.28-3,0-.25,0-.52,0-.78a16.66,16.66,0,0,0-.63-4.32,2,2,0,0,1,3.85-1.09,20.21,20.21,0,0,1,.78,5.41c0,.36,0,.72,0,1.07-.08,1-.16,2.13-.31,3.26A2,2,0,0,1,496.22,185Zm-47.62-5.63a2,2,0,0,1-.48-.06,2,2,0,0,1-1.46-2.42,18.48,18.48,0,0,1,1.23-3.59,30,30,0,0,1,3.08-5.16,2,2,0,1,1,3.21,2.41A25.68,25.68,0,0,0,451.5,175a15.51,15.51,0,0,0-.95,2.83A2,2,0,0,1,448.6,179.39Zm44.08-9.53a2,2,0,0,1-1.6-.79,19.84,19.84,0,0,0-6.16-5.29,2,2,0,1,1,1.94-3.51,23.83,23.83,0,0,1,7.42,6.38,2,2,0,0,1-1.6,3.21Zm-35.42-3.69A2,2,0,0,1,456,162.6a20.48,20.48,0,0,1,5.38-2.89l.34-.13a10.47,10.47,0,0,1,1.82-.63l.52-.1c.15,0,.38-.07.46-.1a2,2,0,0,1,2.69.81,2,2,0,0,1-.82,2.73,4.87,4.87,0,0,1-1.64.5l-.3.06a8.13,8.13,0,0,0-1.21.43l-.37.15a16.34,16.34,0,0,0-4.36,2.3A2.06,2.06,0,0,1,457.26,166.17Zm13-3.93a2,2,0,0,1-.25-4c1.06-.13,2.13-.25,3.2-.34.64-.06,1.32-.08,2-.08a39.14,39.14,0,0,1,4.23.26,2,2,0,1,1-.43,4,28,28,0,0,0-5.47-.17c-1,.09-2,.2-3,.33Z" transform="translate(-211.45 -72.45)"/><path class="cls-5" d="M620.56,242.33c-3.85,9.61-9.1,18.93-16.55,26.2-5,4.89-10.71,9.39-17.13,12a30.65,30.65,0,0,1-3.4-1.16,22.75,22.75,0,0,1-10.23-8.87c-2-3.26-2.86-7.4-3.45-11.11-.54-3.42,1.05-14.72-1.47-14.71s-5.11.86-6.33,3c-1.33,2.33-1,8.75-.57,12.85a35.78,35.78,0,0,0,5.81,15.19,25.17,25.17,0,0,0,7.68,7.16c-11.66.55-23.3.3-35,.39-4.92,0-10.33.12-15.14,1.41,2.14-10.79,1.15-26.78.53-35.67,8.34-13.67,23.47-16.08,36-25.33,6-4.44,14.13-10.56,18.48-16.4,7,1,15.07-1.29,21-3.81,5.72-2.44,18.16-10.12,17.36-17.46a2.68,2.68,0,0,0-4-2.27c-2.85,1.28-4.27,4.54-6.44,6.74a35.34,35.34,0,0,1-9.13,6.37,29.51,29.51,0,0,1-12.71,2.85h-1.17c1-1.78,1.93-3.6,2.78-5.49,2.75-6.07,4.12-12.79,5.07-19.36.48-3.37.82-6.75,1.22-10.13.46-3.89,1.79-6.95-.17-10.54a3.62,3.62,0,0,0-4.94-1.3c-5.16,3.68-4.56,11.78-5.35,17.6a63.44,63.44,0,0,1-6.67,21.27c-6.16,11.64-15,19.37-26.57,25.39C541,221.87,533.47,225.24,527,230c-.88.65-5,4.31-5.78,5.13-4-11.35-8.78-22.33-11.59-34.17a91.86,91.86,0,0,1,.56-46.05c1.81-6.39,4.35-12.68,3.48-19.24-.59-4.41-8.59-6.41-10.1-1.75-4.86,14.94-9.75,29.32-10.13,45.2-.38,15.63,3.83,30.57,7.36,45.62,1.67,7.09,3.07,14.12,5,21.17a91.3,91.3,0,0,1,3.36,20.56c.2,5.84,0,11.87-1.59,17.51-1.14,3.94-2.85,6-6.26,9.18a27.33,27.33,0,0,1-3.95,2.68c-.93.55-1.89,1-2.85,1.51.18-.1-2,.83-2,.88a119.94,119.94,0,0,1-13.78,4.13c-9.66,2.49-19.41,4.8-28.21,9.66-10,5.51-15.92,15.18-19.67,25.59a77.2,77.2,0,0,0-2.3,7.64c-.3-.65-.6-1.29-.91-1.92-4.55-9.23-13.35-19.83-25.1-23.83-3-2.5-4.25-4.5-6.75-8.5a98.25,98.25,0,0,1-11.5-26.75c-2.37-8.31-2.91-15.36-4.85-23.87,2-2.56,4.23-4.76,6.31-7.41,5.56-7,11.64-13.17,15.68-21.29a90.44,90.44,0,0,0,8.11-25.43c1-6.75,1.66-14.76,1.75-17.25.15-4.2-1.33-6.45-3.75-6.5-2.75-.05-5.09-1.08-6.58,1.2-1.88,2.89-1.88,6.39-2.18,9.75a70.27,70.27,0,0,1-3,14.8c-2.65,7.11-4.63,11.61-9.49,17.55-3.63,4.45-8.13,8.55-11.78,13.18-2.62-7.66-8.58-18.17-13.15-24.31-6-8.12-17.64-15.88-22-20-3.64-3.45-10.66-6-14.33-23-1-4.81-11.75-4-11.67,1.66a43.28,43.28,0,0,0,8.2,25.53A46.6,46.6,0,0,0,333.86,211c4.81,3.31,8.65,7.54,12.6,11.79a48.05,48.05,0,0,1,8.24,13c2.39,5.17,2.63,9.91,3.19,15.49,1.29,13.08,3.31,25.73,7.18,38.33,2.77,9,7.59,16.83,12.9,24.38A69.53,69.53,0,0,1,365,310.13,56.31,56.31,0,0,1,338.92,287c-3.19-5.49-5.91-10.11-8.92-15.71-2.84-5.28-6.64-8.76-11.33-12.33-8-6.11-17.34-8.33-27-11.33-10.27-3.19-20.21-5.41-27.17-13.67a67.67,67.67,0,0,1-10.75-16c-5-9.92-8.38-18.74-9.25-23.5s-6-3.28-6.5.75c-.77,6.34,2.25,14.46,4,20.42,1.67,5.66,4.33,11.33,8.67,18.33a61.6,61.6,0,0,0,23.17,22.41c8.18,4.65,17.11,8.13,25.45,11.95,10.34,4.74,14.44,12.35,19,22.64,9.6,21.46,36.34,38.67,58.11,43.07,5.54,1.12,17.56,4.93,21.89,12.6,3,5.35,3.16,14.08,4,24.33.56,6.58,1,13.16,2.17,19.67.1.57.23,1.12.37,1.67.06.72.12,1.44.17,2.16a44.88,44.88,0,0,1-.68,8.41,75.52,75.52,0,0,0-.36,10.42c0,6.64,2.13,13,3.29,19.49.87,4.83,1.7,10.78,5.06,14.6a3,3,0,0,0,2.14,3.56c5.59,1.67,12.23.41,17.79-1,3.9-1,8.88-2.28,11.7-5.43,3.52-2.69,4.27-8.6,4.73-12.73,1.19-10.7.56-19.94.83-27.88a67.41,67.41,0,0,0,1.08-11.17,21.44,21.44,0,0,1,1.07-3.13c2.26-5.16,7.33-8.52,11.69-11.74,7.61-5.63,10.42-6.32,16.27-14.93,3.16-4.67-.68-8.36-3.5-5.83-3.17,2.83-3.39,5.1-6.5,8-4,3.69-7.5,4.66-11.48,7.44a49.25,49.25,0,0,0-8.53,7.48c-.82-5.25-1.87-10.47-2.88-15.68-.48-2.48-.87-5-1.29-7.42,2.3-9.85,4.23-19.8,11.31-26.88,6.23-6.23,16.46-7.31,24.67-9.05,9.57-2,15.13-4.31,23.82-8.95a37,37,0,0,0,14.13-13.48c3.5-.39,6.33-.2,9.55-.47,6.49-.54,14-.71,20.53-.83a141.27,141.27,0,0,0,38.46-5.9c4.8-1.47,9.75-4.8,13.71-7.76a56.64,56.64,0,0,0,11.22-10.49,76,76,0,0,0,14.61-31.43C628.12,238.5,621.76,239.33,620.56,242.33Z" transform="translate(-211.45 -72.45)"/><path class="cls-4" d="M381.33,438.33s28.84,4.71,48.34,4.34c17.5-.34,42.66-5,42.66-5L464,491.5s-8.66,7.44-34.33,7.17C398,498.33,391,491.33,391,491.33Z" transform="translate(-211.45 -72.45)"/><path class="cls-2" d="M288.44,177c-1.19-.36-2.61-.73-2.77-2.06a3.56,3.56,0,0,1,.58-2.34c.83-1.08,2-1.15,1.67-1.83-.92-2.17-3.84-.75-6.34,2.08-1.38,1.57-3.08,1.09-3.83,2.67a6.88,6.88,0,0,0-.92,3.08,5.86,5.86,0,0,0,3.85,5.79c4.9,2,11.37,2.78,11.38-3C292.07,178.89,290.65,177.66,288.44,177Z" transform="translate(-211.45 -72.45)"/><path class="cls-4" d="M284.43,177.8c1.23,2.26,5,3.67,7.38,2.61a.28.28,0,0,0-.14-.52,11.45,11.45,0,0,1-3.4-.22,8.72,8.72,0,0,1-3.41-2.2.27.27,0,0,0-.43.33Z" transform="translate(-211.45 -72.45)"/><path class="cls-4" d="M283.78,181.13c1,2.19,5.52,4,7.68,2.59a.26.26,0,0,0-.13-.48c-2.54.2-5.5,0-7.11-2.37a.26.26,0,0,0-.44.26Z" transform="translate(-211.45 -72.45)"/><path class="cls-2" d="M599.3,482.38c-2-2.78-9.45-1.75-10.91,1.16a.41.41,0,0,0,.32.61c-1,3.33-4,5.58-6.89,7.21-1.35.76-4.72,2.56-3.6,4.72,1,1.94,3.56,1.54,5.38,1.39,3.81-.3,7.28-2.24,10.38-4.34,1.87-1.26,5.71-1.13,6.68-3.6C601.56,487.27,600.66,484.3,599.3,482.38Z" transform="translate(-211.45 -72.45)"/><path class="cls-2" d="M564.42,486.67a8,8,0,0,0-2.34-4.34c-1.83-1.37-3.35.26-5.48.22a17.31,17.31,0,0,0-7.77,2.12c-1.68,1.79-6,3-8,3.71-2.18.76-5.77,1.31-5.34,3.62.67,3.54,7.41,2.68,10.42,2.58,4-.12,6.47-.81,10.16-.91,1.76-.05,4.06.32,6.09-.34C565,492.42,565,489.42,564.42,486.67Z" transform="translate(-211.45 -72.45)"/><path class="cls-7" d="M544.19,487.31a14.91,14.91,0,0,1,2.94,3.57" transform="translate(-211.45 -72.45)"/><path class="cls-7" d="M546.75,486.19a11.48,11.48,0,0,1,3.19,3.75" transform="translate(-211.45 -72.45)"/><path class="cls-7" d="M549.5,484.81a15.69,15.69,0,0,1,3.13,4.13" transform="translate(-211.45 -72.45)"/><path class="cls-7" d="M584.06,490.06a10.1,10.1,0,0,1,3.5,2.38" transform="translate(-211.45 -72.45)"/><path class="cls-7" d="M586.38,488.31a15.63,15.63,0,0,1,4.18,2.75" transform="translate(-211.45 -72.45)"/><path class="cls-7" d="M587.94,486.44a16,16,0,0,1,4.69,2.81" transform="translate(-211.45 -72.45)"/><path class="cls-8" d="M552.38,402.75l-1.25,13.5-2.38,21.88-1.17,18.54.17,16.66s.08,10.05,1.08,11.92c.77,1.44,8.17,0,8.17,0s5.61.08,6.75-1.62c.92-1.38,1.08-22.8,1.08-22.8L567.67,431l2.21-19,1-3.87,1.75,2.5L576,423l2.25,15L580,450.38l2.5,15.25,3.5,13.75,2,6.12,8-.75s3.25-.12,4.25-.87a3.09,3.09,0,0,0,1-2.25L597.5,457.5s-3.62-16.87-4.37-23.75-1-22.25-1-22.25-.25-8.12-.63-14.12c-.28-4.42-3-10.63-3-10.63L560,396.5l-8,3.63Z" transform="translate(-211.45 -72.45)"/><path class="cls-1" d="M525,321.12a.12.12,0,0,0,0-.24.12.12,0,0,0,0,.24Z" transform="translate(-211.45 -72.45)"/><path class="cls-1" d="M537.82,351.08c-1.57-1.3-6.1-2-8.12-.54a.46.46,0,0,0-.7.46v0c-2,1.15-4.12,2-5.73,4.08-1.83,2.39-2.83,5.49-3.9,8.27-1.91,5-4.12,8.53-9.32,10.33-5.35,1.84-11.05,2.54-16.35,4.6-2.73,1.05-4.25,2.48-3.77,5.47a28.44,28.44,0,0,0,1.07,4.84c.55,1.79.88,3,3.5,2.87,1.5-.07,7.15-.86,8.85-1.24a100.1,100.1,0,0,0,11.76-3.3c11.1-4,20-12.21,23.59-23.59C539.73,360.12,540.92,353.62,537.82,351.08Z" transform="translate(-211.45 -72.45)"/><path class="cls-1" d="M551.9,399.4c-.67,2.2-.37,4.74-.49,7-.18,3.32-.59,6.6-1,9.91-.73,6.27-1.61,12.51-2.23,18.79A254.59,254.59,0,0,0,547,464.74c.08,4.5.19,9,.38,13.49a37.58,37.58,0,0,0,.5,6.87c.3,1.24,1.58,1.54,2.68,1.38,3.08-.42,6.17-.63,9.27-1,3.38-.36,4.94-.87,5-4.51.17-14,1.34-27.88,2.57-41.79.9-10.2,1.56-20.51,3.62-30.56l-.69.39c1.89.67,2.9,5.51,3.31,7.32.73,3.18,1.57,6.32,2.09,9.54,1.08,6.69,2,13.4,3,20.11,1.88,13.38,4.13,26.88,8.58,39.68a.75.75,0,0,0,.7.53,85.33,85.33,0,0,0,9.14-1c1-.15,3.57-.12,4.24-1.19.85-1.36.14-3.68,0-5.14-.19-2.08-.5-4.14-.81-6.2-1.71-11.32-4.05-22.53-5.94-33.82-1.83-10.93-1.84-22-1.9-33.08,0-6.66-.67-13.48-3.72-19.51a3.73,3.73,0,0,0-3-2.23,33.55,33.55,0,0,0-8.49.64,46.67,46.67,0,0,0-8.88,3.15,77.68,77.68,0,0,0-9,4.25,46.89,46.89,0,0,0-5.46,4.17c-1.19,1-2.43,2.29-1.83,3.9l1-.8-.75-.5c-.75-.5-1.46.72-.7,1.22l.75.5a.71.71,0,0,0,1-.8c-.7-1.83,4.81-5.31,5.91-6.07,3-2,6.39-3.33,9.67-4.73,3.88-1.66,7.83-3.25,12.07-3.63,1.25-.11,2.53-.11,3.79-.17,1.7-.09,2.5.79,3.25,2.23,3.53,6.83,3.4,15,3.41,22.5,0,5.52.23,11,.57,16.54.67,10.72,2.94,21.23,4.87,31.78,1,5.45,2,10.9,2.78,16.38.34,2.31.57,4.63.8,7,.12,1.26.09,2.08-1.32,2.37a43.76,43.76,0,0,1-4.56.6c-2.29.22-4.62.13-6.92.21l.7.53c-4.72-13.69-6.89-28.11-8.9-42.39-.95-6.72-1.89-13.44-3.1-20.11a66.65,66.65,0,0,0-2.84-9.55c-.59-1.7-1.31-4.61-3.21-5.3a.57.57,0,0,0-.69.39c-1.87,9.17-2.57,18.56-3.39,27.87-1.17,13.2-2.32,26.39-2.83,39.64-.09,2.26.27,4.67-.13,6.92s-4.82,1.73-6.41,1.88c-1,.09-7.8,1.25-8.16.13a11.17,11.17,0,0,1-.22-2.65c-.49-8.59-.62-17.22-.59-25.81,0-8.89,1.19-17.66,2.14-26.5.54-5.08,1.12-10.16,1.49-15.26.18-2.49.33-5,.42-7.45s-.29-5.24.32-7.52A.36.36,0,0,0,551.9,399.4Z" transform="translate(-211.45 -72.45)"/><path class="cls-1" d="M583.67,375.83c-2.5-3.75-4.26-7.22-7.5-11.83-6.18-8.78-16.11-19.8-21-21.83A18.17,18.17,0,0,0,539,343c-2.62,1.4-7.23,5.58-8.25,8.5-2.8,3.34-.55,5.89-.77,10.41-.28,5.76,3.3,9.81,6.89,13.84.64.73,1.3,1.46,2,2.18a100,100,0,0,1-10.82.73.68.68,0,0,0-.68.67,22,22,0,0,0,3.36,12,2.66,2.66,0,0,0,2.08,1c2.34.23,4.92-.33,7.24-.55,2.56-.25,5.14-.56,7.71-.95,1.67,3.94,2.79,7,3.29,8.13.19.43.36,2.23.75,2.13a282.17,282.17,0,0,0,27.75-8.46,76.47,76.47,0,0,0,10.17-4.5C590.17,387.83,586.12,379.52,583.67,375.83Z" transform="translate(-211.45 -72.45)"/><polygon class="cls-4" points="318.67 316.55 273.17 339.37 293.8 371.55 331.8 354.05 318.67 316.55"/><path class="cls-4" d="M499,380c-13,5.41-19.44,19.51-14.45,31.48.07.15.15.3.21.45,2.09-.24,3.74-1.4,5.73-2.32l-.06-.13c-3.87-9.27,1.14-20.19,11.19-24.38,9.27-3.86,19.32-.43,23.86,7.42a11.6,11.6,0,0,1,4.74-3.26C524.31,379.17,511,375,499,380Z" transform="translate(-211.45 -72.45)"/><polygon class="cls-4" points="286.55 356.05 253.05 352.8 252.05 346.8 280.55 345.8 286.55 356.05"/><path class="cls-2" d="M461.67,422c0,1.75,1.38,3.33,2.58,3.33s2-1.58,1.75-3.33-1.05-2.75-2.25-2.75S461.67,420.25,461.67,422Z" transform="translate(-211.45 -72.45)"/><path class="cls-6" d="M529.31,379.48c-1.31-2.6-7.35,0-8.81,1.21-1.86,1.55-3.61,3.9-3.14,6.5a7.1,7.1,0,0,0,4.86,5.45c4.49,1.59,9-1.61,9.94-6A6.68,6.68,0,0,0,529.31,379.48Z" transform="translate(-211.45 -72.45)"/><path class="cls-2" d="M538.67,379.1c5-.32,10.12-.55,15.07-1.32,2.67-.42,6.38-1.15,8.22-3.31,2.54-3-4-8-5.64-9.72-1.43-1.47-2.91-2.87-4.22-4.44a45.56,45.56,0,0,1-4.52-7.12.28.28,0,0,0-.52.22c.86,3.24,2.93,6,5,8.6,1.34,1.63,2.93,3.13,4.39,4.66,1.22,1.28,5.77,5.07,4,7.14-.77.92-2.83,1.51-4,1.87a32.15,32.15,0,0,1-4.25.92c-4.55.76-9.11,1.32-13.68,2-.31.05-.23.55.07.53Z" transform="translate(-211.45 -72.45)"/><path class="cls-2" d="M548.78,390.35c1.83.26,3.77-.39,5.56-.72a65.88,65.88,0,0,0,9-2.73c4.94-1.68,9.44-3.5,11.93-8.39,2.63-5.16.68-10.66-2.21-15.2a53.14,53.14,0,0,0-11.75-12.86c-.24-.19-.48.19-.3.4,6.37,7.4,17.23,15.4,13.67,26.7-1.74,5.52-7.35,7.31-12.26,9-2.33.8-4.69,1.51-7.07,2.17a23.88,23.88,0,0,1-6.5,1.24c-.21,0-.27.35-.05.38Z" transform="translate(-211.45 -72.45)"/><path class="cls-2" d="M519.5,341.11c-1.09-2.65-2.09-5.4-3.38-8-1.13-2.23-2.62-4.08-5.2-4.4a5,5,0,0,0-3.27,1.3c-.7.56-1.35,1.15-2,1.75s-3.32.95-3.32,3.2c0,4.61,1.37,7.8,2.34,12.25,1.18,5.44,1.52,7.36,1.83,9.58.33,2.42,2.88,1,4.53-.38,3-2.4,6.51-4.74,8.87-7.75C521.67,346.46,520.46,343.43,519.5,341.11Z" transform="translate(-211.45 -72.45)"/><path class="cls-6" d="M537.63,325.38c-1.84-9.62-5.42-11.83-14.68-10.36a21.38,21.38,0,0,0-9.29,3.52c-2.08,1.39-4.24,2.25-5.92,4.2a11,11,0,0,0-2.69,6.87c-.29,5.15,2.5,11.54,5.65,15.49,3,3.75,6.85,6.55,11.7,7.12a20.44,20.44,0,0,0,13.51-2.76C542.74,345.05,539.09,333.06,537.63,325.38Z" transform="translate(-211.45 -72.45)"/><path class="cls-2" d="M542,330.25c-.5-3-.37-16.12-13.5-17.58-8.31-.93-16.33,1.5-21.83,8.33a21.22,21.22,0,0,0-4.34,14.25,14.69,14.69,0,0,0,1.5,6.25c.49,1,1.25-.67,1.59-1.08a57.82,57.82,0,0,1,5.58-5.09A31.42,31.42,0,0,1,521.67,329c4.33-1.5,6.11-1.32,6.33,1.92.13,2,.25,4.58.5,7,.37,3.54.3,5,1.33,8.5.25.83.87,1.58,1.42,1.41,1.42-.41,3.24-2.5,4.63-3.7,1.91-1.67,3-3.08,4.75-4.75C543.31,336.75,542.93,335.83,542,330.25Z" transform="translate(-211.45 -72.45)"/><path class="cls-6" d="M492.63,381.46a2.85,2.85,0,0,0-1.65-.6,6.7,6.7,0,0,0-2.54.64,30.82,30.82,0,0,0-4.25,1.69,6.47,6.47,0,0,0-3.87,4.11c-1.78,5.78,1.14,7.52,4.29,8.73,1.59.61,3.31-1.28,4.21-2.3a5.61,5.61,0,0,0,1.25-5.49c-.56-2.28,3-4.7,3.14-5A1.46,1.46,0,0,0,492.63,381.46Z" transform="translate(-211.45 -72.45)"/><path class="cls-4" d="M485.9,388c.23,2.53.83,5.25,3.85,5.52.32,0,.36-.45.07-.53a3.9,3.9,0,0,1-2.7-1.83,10.11,10.11,0,0,1-.86-3.21c0-.2-.37-.15-.36.05Z" transform="translate(-211.45 -72.45)"/><path class="cls-4" d="M482.37,388.81a6,6,0,0,0,1.41,4.81c1.14,1.3,3.13,2.42,4.87,1.64a.31.31,0,0,0-.07-.55,6.12,6.12,0,0,1-3.72-1.75,6.34,6.34,0,0,1-1.71-4c0-.43-.71-.57-.78-.11Z" transform="translate(-211.45 -72.45)"/><ellipse class="cls-5" cx="302.05" cy="268.22" rx="1.5" ry="1.33"/><ellipse class="cls-5" cx="311.05" cy="263.22" rx="1.5" ry="1.33"/><path class="cls-6" d="M638.51,227.61c-3.31-2.48-8.6-3.37-14.16.15-4.06,2.94-5.19,5.77-5.14,9.63a5,5,0,0,0,4.14,4.66c4.14.58,5.59-3.25,8.73-5,2.48-1.35,6.06-.12,7.82-3A4.74,4.74,0,0,0,638.51,227.61Z" transform="translate(-211.45 -72.45)"/><path class="cls-3" d="M621.79,227.52c1.56-.63,1-2.69.5-3.82s-1.38-2.44-1.86-3.78a2.36,2.36,0,0,0-2.81-1.66,2.31,2.31,0,0,0-1.66,2.81,16.62,16.62,0,0,0,2.7,4.62,11.91,11.91,0,0,0,1.22,1.44s1.16.69.53.37a1.5,1.5,0,0,0,1.38,0Z" transform="translate(-211.45 -72.45)"/><path class="cls-3" d="M626.64,224.81h0a1.64,1.64,0,0,0,1.62-.4,4.06,4.06,0,0,0,.77-3.55c-.16-1.29-.22-2.61-.45-3.89-.44-2.5-4-1.8-4.22.5a13.14,13.14,0,0,0,.57,4.44c.32,1,.52,2.48,1.68,2.89Z" transform="translate(-211.45 -72.45)"/><path class="cls-3" d="M633.79,224.21c1.54.26,2.36-1.19,2.76-2.48a17.45,17.45,0,0,0,.88-5,1.79,1.79,0,0,0-3.3-1c-1.5,2-1,5.32-1,7.56a1,1,0,0,0,.68.92Z" transform="translate(-211.45 -72.45)"/><path class="cls-3" d="M639.38,225.88c1.47,1.1,2.87-.62,3.64-1.71a20.22,20.22,0,0,0,1-1.88,25.58,25.58,0,0,0,1.67-3.2c.66-1.56-1.47-3.18-2.84-2.26-1.75,1.19-2.62,3.22-3.28,5.18-.38,1.15-1.31,3.06-.22,3.87Z" transform="translate(-211.45 -72.45)"/><path class="cls-3" d="M643.51,229.6c1.72,1,4.39-1,6-1.66,1.43-.58,4.72-2.22,2.56-4.06-1.77-1.51-5,.49-6.59,1.4-1.05.6-4,3.16-1.94,4.32Z" transform="translate(-211.45 -72.45)"/><path class="cls-3" d="M642.77,234c.63,1.6,2.39,1.62,3.85,1.75,1.79.16,4.62.51,6-.89a1.43,1.43,0,0,0,.23-2c-1.28-1.5-3.37-1.27-5.17-1.27a13.5,13.5,0,0,0-4.23.61,1.34,1.34,0,0,0-.69,1.76Z" transform="translate(-211.45 -72.45)"/><path class="cls-3" d="M638.83,238c1.18,2.13,3.66,3.48,5.89,4.32,1.55.59,3.22-1.4,2-2.72a9.2,9.2,0,0,0-3.54-2,6.37,6.37,0,0,0-3.72-.75.83.83,0,0,0-.61,1.15Z" transform="translate(-211.45 -72.45)"/><path class="cls-3" d="M634.38,241a6.87,6.87,0,0,0,1.39,3.8c.87,1.32,1.49,2.79,2.94,3.58a1.51,1.51,0,0,0,2.21-1.36,8.31,8.31,0,0,0-2.08-4.64c-.86-1.11-1.84-2.47-3.32-2.6-.66,0-1.12.63-1.14,1.22Z" transform="translate(-211.45 -72.45)"/><path class="cls-3" d="M628.16,242.26c-.62,2.32.76,11.87,4.67,8.9a2.08,2.08,0,0,0,.56-2,30,30,0,0,0-1.15-3.55,8,8,0,0,0-2-3.87,1.25,1.25,0,0,0-2.07.51Z" transform="translate(-211.45 -72.45)"/><path class="cls-3" d="M622.56,243.59c-1.7,1.6-1.94,4.76-1.89,7a2.08,2.08,0,0,0,1.31,2.05,2,2,0,0,0,2.57-1.18,15.34,15.34,0,0,0,.24-4.06,5.91,5.91,0,0,0-.93-3.68.91.91,0,0,0-1.3-.11Z" transform="translate(-211.45 -72.45)"/><path class="cls-3" d="M617.66,239.65a7.42,7.42,0,0,0-3.17,1.43c-1,.74-2.21,1.18-2.93,2.31-.86,1.34.5,3.53,2.15,2.9a11.38,11.38,0,0,0,3.14-2,6.22,6.22,0,0,0,2.23-3.14,1.19,1.19,0,0,0-1.42-1.46Z" transform="translate(-211.45 -72.45)"/><path class="cls-3" d="M617.59,235.89c.18-1.58-2.06-1.59-3-1.76-2-.34-5.65-.51-6.78,1.46a1.5,1.5,0,0,0,0,1.53,2.62,2.62,0,0,0,2.89,1.17c1.29-.22,2.57-.3,3.85-.48,1.12-.16,3-.59,3.11-1.92Z" transform="translate(-211.45 -72.45)"/><path class="cls-3" d="M618.67,230.09c-.47-1.11-1.78-1.7-2.76-2.3a38.34,38.34,0,0,0-4-2.24,2,2,0,0,0-2.32.26,1.91,1.91,0,0,0,0,2.7A19.8,19.8,0,0,0,614,231c1.28.63,2.94,1.6,4.28.63a1.19,1.19,0,0,0,.44-1.56Z" transform="translate(-211.45 -72.45)"/><path class="cls-3" d="M625.61,260l-.18,0a2,2,0,0,1-1.8-2.2A2,2,0,0,1,625.8,256h.05a2,2,0,0,1-.24,4Zm6-1.12a2,2,0,0,1-.1-4l.14,2-.13-2a2,2,0,0,1,2.16,1.82,2,2,0,0,1-1.78,2.16h-.29Zm-12,.91a2.1,2.1,0,0,1-.43-.05,2,2,0,0,1-1.51-2.4,2,2,0,0,1,2.36-1.51l.07,0a2,2,0,0,1-.49,3.94Zm18.91-3.21a2,2,0,0,1-1.86-1.33,2,2,0,0,1,1.19-2.54l.05,0a2,2,0,0,1,1.34,3.77A2.27,2.27,0,0,1,638.56,256.59Zm-26.62,1.07a1.93,1.93,0,0,1-.84-.21,2,2,0,0,1-1-2.61,2,2,0,0,1,2.65-1l.14.06a2,2,0,0,1-.91,3.8ZM607,253.57a2.07,2.07,0,0,1-.84-.2,2,2,0,0,1-1-2.62,2,2,0,0,1,2.65-1l.14.06a2,2,0,0,1-.91,3.8Zm38.9.19a2,2,0,0,1-1-3.7L645,250a2,2,0,1,1,.89,3.79Zm6.05-2.9a2,2,0,0,1-1.63-.91,2,2,0,0,1,.6-2.79l.14-.08a2,2,0,1,1,2,3.46A1.91,1.91,0,0,1,652,250.86Zm-48.48-3.09a2,2,0,0,1-1.88-1.44,2,2,0,0,1,1.22-2.52,2,2,0,0,1,2.57,1.24l.05.16a2,2,0,0,1-1.36,2.48A2.06,2.06,0,0,1,603.48,247.77Zm52.12-1.84a1.82,1.82,0,0,1-.68-.13,2,2,0,0,1-1.14-2.57l0,0a2,2,0,1,1,1.8,2.75Zm-53.45-5.05a2,2,0,1,1,2-2.13v.05a2,2,0,0,1-1.91,2.08Zm55.92-1.52a2.35,2.35,0,0,1-.58-.1,2,2,0,0,1-1.29-2.52l1.9.62-1.9-.62a2,2,0,0,1,2.47-1.33,2,2,0,0,1,1.38,2.42l0,.14A2,2,0,0,1,658.07,239.36Zm-55.6-5.48h-.12a2,2,0,0,1-1.84-2.18,1,1,0,0,1,0-.17,2,2,0,0,1,4,.54l-2-.27,2,.28A2,2,0,0,1,602.47,233.88Zm56.64-1.43a2,2,0,0,1-2-2l2,0-2-.08a2,2,0,0,1,1.91-2.06,2,2,0,0,1,2.08,1.94.54.54,0,0,1,0,.18A2,2,0,0,1,659.11,232.45Zm-55.33-5.52a2,2,0,0,1-1.83-2.72A2,2,0,0,1,604.5,223a2,2,0,0,1,1.23,2.49l-.05.14A2,2,0,0,1,603.78,226.93Zm53.77-1.38a1.94,1.94,0,0,1-1.82-1.31l0,0a2,2,0,1,1,2.56,1.23A1.82,1.82,0,0,1,657.55,225.55Zm-50.25-4.7a2,2,0,0,1-1.22-.44,2,2,0,0,1-.31-2.79l.07-.08a2,2,0,0,1,3.06,2.58l-1.53-1.29,1.52,1.3A2,2,0,0,1,607.3,220.85Zm46.85-1.4a2,2,0,0,1-1.4-.63l-.09-.1a2,2,0,1,1,1.49.73Zm-41.61-3.2a2,2,0,0,1-1.74-1.08,2,2,0,0,1,.87-2.7,2,2,0,0,1,2.71.86,2,2,0,0,1-.85,2.68l0,0A2,2,0,0,1,612.54,216.25Zm36.12-1.13a2.08,2.08,0,0,1-1-.28l1-1.72-1,1.71a2,2,0,0,1,2-3.49l.08.06a2,2,0,0,1-1.05,3.72Zm-29.77-2a2,2,0,1,1,1.5-.63,2.2,2.2,0,0,1-.28.24A2,2,0,0,1,618.89,213.16Zm23.35-.93a2,2,0,0,1-.59-.1l-.07,0a2,2,0,0,1,1.3-3.79,2,2,0,0,1,1.27,2.54A2,2,0,0,1,642.24,212.23Zm-15-1.43a2,2,0,1,1,2.06-2.15,2,2,0,0,1-1.83,2.14h-.23Zm8.1,0h-.17a2,2,0,0,1,.3-4,2,2,0,0,1,1.87,2.12A2,2,0,0,1,635.36,210.8Z" transform="translate(-211.45 -72.45)"/><path class="cls-6" d="M708.83,485.17c-.28-2.05-1.69-4.35-2.33-6.34s-1.76-2-3.12-3.54c-1.06-1.22-4.83-1.48-5.79.1h0c0-.1,0-.2.07-.3.1-.42-.7-.62-.66-.18.67,7.26-2.71,9-8.17,10.92-2.48.85-7.26,1.27-7.66,4.5-.62,4.93,9.11,3.48,11.45,3.07,3.72-.64,10.38-.9,12.21-1.07C708.63,492,709.33,488.83,708.83,485.17Z" transform="translate(-211.45 -72.45)"/><path class="cls-6" d="M756,465.38c.65-.74,2.54-.57,3.75-.5a38.6,38.6,0,0,0-6.12-5.75c-3.94-2.93-3.8-1.63-6.8,1.87-2,1.83-.45,2.64,2,7.83,2.84,6,2.15,11.24,3.8,14.67.91,1.92,1.79,4.58,5.79,4.17-.56-4.09-3-10.15-4-13.68C753.61,471.18,754,467.67,756,465.38Z" transform="translate(-211.45 -72.45)"/><path class="cls-3" d="M760.13,487.75c1.6-.3,3.61-4.82,3.37-7.12-.35-3.31-1.48-6.08-1.73-9.39-.27-3.61-.89-6.24-2.82-6.79a5.25,5.25,0,0,0-3,.72c-2.25,1.29-2.84,3.83-1.49,8.82,1,3.55-1.46,5.55.45,11.26C755.75,487.5,756.75,488.38,760.13,487.75Z" transform="translate(-211.45 -72.45)"/><path class="cls-2" d="M755.67,458.71c-6.87-10.37-16.21-18.66-23.77-28.48a69.34,69.34,0,0,1-9.47-16.85c-2.51-6.32-4.74-12.74-7.88-18.8-1.8-3.47-4.26-7.69-8-9.44a4.51,4.51,0,0,0-2.19-.47,2,2,0,0,0-.68.18,20.23,20.23,0,0,1-5.35,1.47c-5.84.94-10.29,4.58-15.28,7.46-2.13,1.23-3.68,3.4-6.07,4.15-.94.3-1.85.64-2.06,1.5l-.5-.17-.09-.36a.4.4,0,0,0-.37-.28h-.67a.38.38,0,0,0,0,.75c1.1,0,2.13,8.41,2.36,9.69.7,4,1.16,8,1.78,12a133.36,133.36,0,0,0,5.5,23c2.46,7.15,5.06,14.27,7.61,21.39a47.65,47.65,0,0,1,2.51,11.44c.19,1.81.1,4.12,1,5.76a.68.68,0,0,0,.59.33,76.47,76.47,0,0,0,12.81-1.34c3.19-.64,2.89-2.53,2.67-5.4-.72-9.64-3.12-19.23-5.62-28.53-1.93-7.17-3.75-14.37-5.16-21.67a29.76,29.76,0,0,1-.48-8.73,16.52,16.52,0,0,1,.77-3.63c.72-2.18,2-.12,2.75.93,3.11,4.6,5.12,9.88,7.7,14.77,3.1,5.88,7.48,11.2,11.69,16.31a159.87,159.87,0,0,0,19.88,20.09c1.53,1.3,3.54,2.74,5.1,1a17.07,17.07,0,0,1,3-3.2c2-1.25,3.77-2.74,5.65-4.1A.58.58,0,0,0,755.67,458.71Z" transform="translate(-211.45 -72.45)"/><path class="cls-1" d="M636.3,250.61c-1-2.66-5.39.46-6.46,1.14-3.19,2.05-5.43-1.15-7.55-3.12a76.89,76.89,0,0,0-6.23-5.47c-2.28-1.69-6.3-3.23-7.6.49-1.46,4.15,1.83,7.53,4.23,10.55a22.86,22.86,0,0,1,4.43,7.43c.48,1.56-.07,3.62,1.2,4.89s3.65.61,5.12.83a8.5,8.5,0,0,0,2.88.2c.79-.18,1.82-.8,2.23,0h0a.14.14,0,0,0,.08.05h0a.11.11,0,0,0,.08-.05h0l.21-.42c0,.12,0,.24,0,.35v-.36l.11-.22a.55.55,0,0,0-.08-.59,38.73,38.73,0,0,0,.12-4.33c0-2.56,1.59-4.48,3.4-6.16C633.7,254.77,637,252.56,636.3,250.61Z" transform="translate(-211.45 -72.45)"/><path class="cls-1" d="M657,233.6c-.93-2.33-2-4.68-4-6.24s-4.75-.53-6.16,1.14c-1.84,2.2.46,6.83,1.24,9s2.75,4.43-.34,5.63a8.73,8.73,0,0,0-2.8,1.34,2.08,2.08,0,0,0,.86,3.45c3.25,1.16,6.71-.86,9.4,2.14.19.21.52,0,.42-.28a.45.45,0,0,0,.42-.29c.45-1,2.39-.81,3.15-1.61a4.17,4.17,0,0,0,1.19-3.2C660.27,240.93,658.33,237,657,233.6Z" transform="translate(-211.45 -72.45)"/><path class="cls-6" d="M709,379c-3.93-15.06-2.27-31.17-2.77-46.56a152.24,152.24,0,0,0-7.94-43.16,111.49,111.49,0,0,0-8.06-19.16,81,81,0,0,0-12.8-16.58c-4.15-4.27-9-8.38-14.44-10.87a4.35,4.35,0,0,0-3.52-.49c-1.8.75-3.06,3.29-4.1,4.81a4.09,4.09,0,0,0-.2,4.84,11.19,11.19,0,0,0,2.26,2.3,47.2,47.2,0,0,1,3.93,4.07,175.37,175.37,0,0,1,14.8,18.59,53.73,53.73,0,0,1,8.61,20.33,120,120,0,0,1,2.3,20.26,34.16,34.16,0,0,1-.83,8.9,24.91,24.91,0,0,1-1.92,4.74,22.65,22.65,0,0,1-2.59,4.95c-1.64,2-5.72,2.11-8,2a28.94,28.94,0,0,1-10.14-2.77c-11.73-5.21-19.51-17.53-24.88-28.69a65.75,65.75,0,0,1-5.89-17.6c-.8-5-1.12-10-1.49-15-.22-2.9-.4-5.81-.53-8.71-.07-1.65,0-2.75-1.77-3.24-2-.56-4.45.1-6.49.17-2.29.09-4.58.2-6.87.31-.64,0-.38,11.24-.43,16.3s1,10.15,2,15.05A94.43,94.43,0,0,0,632,327.86c4.12,6.06,9.23,11.49,13.88,17.14,5,6.09,10.28,12.06,13.28,19.45,2.43,6,3.78,12.44,6.67,18.26,2.05,4.15,3.62,8.57,5.31,12.88.61,1.54,1.66,7,4.17,6.37,2.91-.69,5.77-2.18,8.53-3.32,3.22-1.33,6.42-2.72,9.6-4.12,5-2.2,10.18-4.22,15-6.71.92-.48,2.12-1.11,2.14-2.28C710.59,383.4,709.53,381,709,379Z" transform="translate(-211.45 -72.45)"/><path class="cls-1" d="M689.36,303.94c-3.23-2.3-7.07-2.79-10.9-2.51a33.6,33.6,0,0,0-6.06,1.16c-2.79.71-5.16-1-7.9-1a.55.55,0,0,0-.53.69c.32,2.08,1.25,3.95.82,6.09a20.33,20.33,0,0,1-2,5,20,20,0,0,0-2.35,9.2c0,5.51,2.84,10.63,6.77,14.35,3.7,4,22.68,1.3,24.82-1.48,2.41-3.14,5.33-6.45,5.67-10.5C698.37,316.53,696.4,309,689.36,303.94Z" transform="translate(-211.45 -72.45)"/><path class="cls-4" d="M728.33,358.17c-1.61-1.32-3.41-2.36-5.12-3.53-2.64-1.78-4.78-4.89-6.33-7.61-2.33-4.06-4.35-8.58-8.33-11.32A21,21,0,0,0,698,331.78l-.94-.08c.22-.45.44-.89.62-1.34,1.09-2.61,2.25-7.92,2-10.86a22.59,22.59,0,0,0-2.6-9.23c-1.74-3.51-4-6.67-8-7.33A10.87,10.87,0,0,0,679,307.11a12.28,12.28,0,0,0-2.46,5.75,7,7,0,0,0-.14,1c-1.67-.12-3.42,1.3-4.59,2.29a16.17,16.17,0,0,0-5.45,9.21c-.67,3.52-1.1,6.28,0,9.67,1.25,3.83,5.75,5.42,9.59,6.25,3.09.67,10,.75,14.75-2.08a12.36,12.36,0,0,0,2.2-1.58c.13.12.88.63,1,.72,2,1.56,4,2.31,5,4.75,1.12,2.82,2,6.87,4.62,9.44,5.13,5,12.11,6,15.38,6.44a46.77,46.77,0,0,0,9.24,0A.47.47,0,0,0,728.33,358.17Z" transform="translate(-211.45 -72.45)"/><polygon class="cls-1" points="129.36 187.8 133.67 188.24 132.67 194.62 128.86 194.68 129.36 187.8"/><path class="cls-1" d="M404,142.8c1.85-.84,1.35-2.94.73-4.44-.86-2.11-1.21-4.5-2.42-6.46-.73-1.16-3-.82-2.82.77.23,1.81.82,3.59,1.23,5.38.31,1.36,1.09,2.58,1.35,4a1.33,1.33,0,0,0,1.93.78Z" transform="translate(-211.45 -72.45)"/><path class="cls-1" d="M407.83,142.72c2,.07,2.28-2.3,2.46-3.81a20.4,20.4,0,0,0,.15-2.93c0-1,.36-2-.1-3a1,1,0,0,0-.84-.48c-2,.26-1.95,2.76-2.16,4.35s-.31,3-.52,4.51a1.07,1.07,0,0,0,1,1.33Z" transform="translate(-211.45 -72.45)"/><path class="cls-1" d="M410.08,145.08a3.28,3.28,0,0,0,3-.7c.52-.37,1-.81,1.49-1.21a15.16,15.16,0,0,1,1.34-.79c1.07-.71.78-2.75-.71-2.62-2.23.2-3.45,2.62-5.32,3.59a1,1,0,0,0,.23,1.73Z" transform="translate(-211.45 -72.45)"/><path class="cls-1" d="M409.35,148.81a7.32,7.32,0,0,0,3.56,1.74,33.39,33.39,0,0,0,5.42.93c1.76.09,1.89-2.37.4-2.9a43.23,43.23,0,0,0-5.41-1.23c-1.41-.31-2.73-.81-4,.17a.92.92,0,0,0,0,1.29Z" transform="translate(-211.45 -72.45)"/><path class="cls-1" d="M406.61,151.5a11.31,11.31,0,0,0,1.77,2.73c.34.43.72.83,1.08,1.25l.39.46q.16.19-.09-.12a2.55,2.55,0,0,0,.6.58c1.08.81,2.66-.52,2.25-1.73a8.25,8.25,0,0,0-1.83-2.34c-.65-.73-1.4-1.35-2-2.06-.82-.89-2.6,0-2.12,1.23Z" transform="translate(-211.45 -72.45)"/><path class="cls-1" d="M403.63,150c-1.25.37-1.8,1.73-2.29,2.8-.63,1.37-1.67,3.05-1.76,4.59a1.82,1.82,0,0,0,3.08,1.28c1-1.13,1.52-3,2.09-4.43.18-.43.1-.26.25-.6s.44-1.55.31-.84a2.72,2.72,0,0,0-.35-2.45,1.36,1.36,0,0,0-1.33-.35Z" transform="translate(-211.45 -72.45)"/><path class="cls-1" d="M400.13,147.76a22.55,22.55,0,0,0-3.05,1.76c-1,.79-2.24,1.35-3.26,2.14s-.08,2.36,1,2.44c1.44.1,2.74-1.15,3.78-2s2.54-1.58,3.07-3.14a1.06,1.06,0,0,0-1.55-1.19Z" transform="translate(-211.45 -72.45)"/><path class="cls-1" d="M400.75,145.09a3.48,3.48,0,0,0-2.67-1,33,33,0,0,0-3.84-.22,1.64,1.64,0,0,0-.82,3,7.92,7.92,0,0,0,4.23.58,4,4,0,0,0,3.23-1.36.83.83,0,0,0-.13-1Z" transform="translate(-211.45 -72.45)"/><path class="cls-1" d="M402.53,142.3a10.6,10.6,0,0,0-2.35-2.18,25.31,25.31,0,0,1-2-2,2.87,2.87,0,0,0-2.2-1.29,1.55,1.55,0,0,0-1.33,2.31,20.75,20.75,0,0,0,3.41,3.66c.95.8,2,1.68,3.3,1.54a1.36,1.36,0,0,0,1.15-2Z" transform="translate(-211.45 -72.45)"/><path class="cls-3" d="M410,146.2a4.4,4.4,0,1,1-4.4-4.37A4.38,4.38,0,0,1,410,146.2Z" transform="translate(-211.45 -72.45)"/><path class="cls-1" d="M408.47,140.62a5.94,5.94,0,0,0-5.51.2l-.11.05c-3,.85-4.35,5.47-2.93,8.26,2,3.86,7.14,4.33,10.15,1.41S411.9,142.54,408.47,140.62Zm-.41,7.39c-1.11,1.93-3.91,1.4-4.9-.3a3.65,3.65,0,0,1,.42-3.71l.12-.12a3.1,3.1,0,0,1,2.77-.64C408.59,143.74,409,146.4,408.06,148Z" transform="translate(-211.45 -72.45)"/><polygon class="cls-1" points="299.78 44.1 293.6 44.44 293.72 47.2 299.75 46.8 299.78 44.1"/><polygon class="cls-1" points="273.35 62.54 274.66 68.59 277.37 68.04 276.02 62.15 273.35 62.54"/><polygon class="cls-1" points="299.45 48.29 296.38 56.09 299.13 56.59 301.67 50.2 299.45 48.29"/><polygon class="cls-1" points="313.79 52.28 308.44 49.17 306.38 51.17 312.27 54.52 313.79 52.28"/><polygon class="cls-1" points="282.77 46.82 276.52 52.08 278.43 53.74 283.81 49.75 282.77 46.82"/><polygon class="cls-1" points="290.45 64.4 282.58 69.32 283.78 72.18 291.98 66.72 290.45 64.4"/><polygon class="cls-1" points="312.17 56.02 302.14 60.66 302.25 63.91 313.07 59.3 312.17 56.02"/><polygon class="cls-1" points="291.14 58.66 279.56 56.43 278.82 59.09 289.81 61.49 291.14 58.66"/><path class="cls-6" d="M505.5,115.09c-1.3-2.25-5.52-4-9-2.3-2,1-3.74,3.31-3.62,7a6.67,6.67,0,0,0,7.87,6c2.09-.3,4.07-2.39,5-4.18A6.23,6.23,0,0,0,505.5,115.09Z" transform="translate(-211.45 -72.45)"/><path class="cls-6" d="M495.64,141.29c-1.31-2.24-5.53-4-9-2.29-2,1-3.74,3.31-3.62,7a6.66,6.66,0,0,0,7.87,6c2.09-.3,4.07-2.39,5-4.18A6.25,6.25,0,0,0,495.64,141.29Z" transform="translate(-211.45 -72.45)"/><path class="cls-6" d="M522,113.82c-1.31-2.25-5.53-4-9-2.3-2,1-3.74,3.32-3.62,7a6.66,6.66,0,0,0,7.87,6c2.09-.3,4.07-2.39,5-4.18A6.25,6.25,0,0,0,522,113.82Z" transform="translate(-211.45 -72.45)"/><path class="cls-6" d="M535.22,124.14c-1.31-2.25-5.53-4-9-2.3-2,1-3.74,3.31-3.62,7a6.67,6.67,0,0,0,7.87,6c2.09-.3,4.07-2.39,5-4.18A6.23,6.23,0,0,0,535.22,124.14Z" transform="translate(-211.45 -72.45)"/><path class="cls-8" d="M512.72,137.05c-1.17,3.12-4.56,3.62-7.44,2.54s-4.65-3.26-3.48-6.38,4-4.93,6.95-3.93C512.66,130.62,513.9,133.93,512.72,137.05Z" transform="translate(-211.45 -72.45)"/><path class="cls-8" d="M490,131.29c-1.18,3.12-4.4,4.09-7.28,3s-4.06-3-2.89-6.16,3.33-4.79,6.24-3.79C490,125.67,491.14,128.17,490,131.29Z" transform="translate(-211.45 -72.45)"/><path class="cls-6" d="M484.66,123.21A6.62,6.62,0,0,0,479,127.3c-1.75,4,1.06,7.63,5.07,8.23a6.59,6.59,0,0,0,7.55-6.68C491.65,125.3,487.88,122.82,484.66,123.21Zm-.4,10.34c-3.4-.24-4.66-3.7-2.83-6.31a5.16,5.16,0,0,1,6-1.64,3.86,3.86,0,0,1,2.29,3.71C489.56,132.25,487,133.74,484.26,133.55Z" transform="translate(-211.45 -72.45)"/><path class="cls-6" d="M514.35,135.75A6,6,0,0,0,510,128.6c-3.29-1.38-7.45-.53-9.09,3.05a6.49,6.49,0,0,0,4.54,9.28A7.12,7.12,0,0,0,514.35,135.75Zm-8.67,3a4.25,4.25,0,0,1-2.44-6.51,4.44,4.44,0,0,1,3.42-2.34,8.64,8.64,0,0,1,2.9.38,4.57,4.57,0,0,1,2.68,5.65C511.2,138.56,508.22,139.38,505.68,138.72Z" transform="translate(-211.45 -72.45)"/><polygon class="cls-1" points="328.5 80.83 319.95 78.68 319.83 81.61 328.14 83.83 328.5 80.83"/><polygon class="cls-1" points="321.61 93.89 318.71 82.46 315.98 82.93 318.47 93.89 321.61 93.89"/><polygon class="cls-1" points="324.64 97.55 331.71 88.11 329.64 86.28 322.67 95.11 324.64 97.55"/><path class="cls-6" d="M538,173.92c1-2.42-.29-6.81-3.75-8.48-2-.95-4.92-.89-7.74,1.5a6.65,6.65,0,0,0,.16,9.88c1.53,1.46,4.39,1.72,6.35,1.31A6.23,6.23,0,0,0,538,173.92Z" transform="translate(-211.45 -72.45)"/><path class="cls-6" d="M532.59,153.59c1-2.41-.28-6.8-3.74-8.47-2-1-4.92-.89-7.75,1.5a6.66,6.66,0,0,0,.17,9.88c1.52,1.46,4.39,1.72,6.35,1.31A6.2,6.2,0,0,0,532.59,153.59Z" transform="translate(-211.45 -72.45)"/><path class="cls-6" d="M551.52,157c1-2.42-.29-6.81-3.75-8.47-2-1-4.91-.89-7.74,1.49a6.66,6.66,0,0,0,.16,9.89c1.53,1.45,4.4,1.72,6.35,1.31A6.26,6.26,0,0,0,551.52,157Z" transform="translate(-211.45 -72.45)"/><path class="cls-1" d="M633.5,127c-.22-3.74-2.25-6.12-5.75-7.5-4.65-1.83-8.16-1.87-13.12-1.75a78.2,78.2,0,0,0-12.63,1.5c-1.75.29-6.37,1-10.25,1.63-5.62.75-8.82,2.18-12.5,5.37-3.15,2.73-3.94,7.81-2.73,11.93,1.89,6.49,12.59,4.82,17.46,4.52,11.41-.72,24.15,3.37,34.21-4C632.18,135.78,633.79,131.88,633.5,127Z" transform="translate(-211.45 -72.45)"/><path class="cls-6" d="M577.71,122.54c-.9-.7-1.82-1.37-2.77-2a6.27,6.27,0,0,0-3.19-1.53,1.8,1.8,0,0,0-1.76,1.76c-.18,1.59,1.3,2.71,2.45,3.48s3.69,1.65,5.19.8A1.51,1.51,0,0,0,577.71,122.54Z" transform="translate(-211.45 -72.45)"/><path class="cls-6" d="M582.58,120.74c1.51-.74,1-2.74.34-3.89-.76-1.38-1.82-3-3.33-3.56a1.92,1.92,0,0,0-2.41,1.84c0,1.42,1.1,2.5,2,3.43.37.36.71.75,1.1,1.09a5.56,5.56,0,0,1,.47.5,1.53,1.53,0,0,0,1.79.59Z" transform="translate(-211.45 -72.45)"/><path class="cls-6" d="M590.23,118.47c.68-1.41.11-2.86-.49-4.2a12,12,0,0,0-2.38-3.87c-1.74-1.66-3.94.42-3.11,2.4a25.84,25.84,0,0,0,1.88,3.1c.64,1.08,1.07,2.36,2.15,3.08a1.41,1.41,0,0,0,2-.51Z" transform="translate(-211.45 -72.45)"/><path class="cls-6" d="M598,116.75c.91-1.34.55-3.09.22-4.56s-.64-3.18-2-4.07a1.64,1.64,0,0,0-1.93.25c-1.25,1-.93,2.81-.47,4.15a34.56,34.56,0,0,0,1.57,4.23,1.51,1.51,0,0,0,2.56,0Z" transform="translate(-211.45 -72.45)"/><path class="cls-6" d="M606,116.3c1.57-.32,1.58-2.57,1.66-3.79.11-1.6.24-4-1-5.15a1.62,1.62,0,0,0-2.28,0c-1.38,1.35-.91,3.93-.62,5.68.18,1.08.57,3.61,2.23,3.26Z" transform="translate(-211.45 -72.45)"/><path class="cls-6" d="M615.19,115.5c1.19-.31,1.54-1.77,2-3.21a8.85,8.85,0,0,0,.3-5.21,1.84,1.84,0,0,0-3.52,0,15.23,15.23,0,0,0-.52,3.76,13.69,13.69,0,0,0-.26,3.66,1.06,1.06,0,0,0,1.32,1Z" transform="translate(-211.45 -72.45)"/><path class="cls-6" d="M622.69,115.44c1.44.44,2.62-2.46,2.87-3.19.63-1.81,1.07-3.44.57-4.69a1.75,1.75,0,0,0-2-1c-1.67.61-2.2,2.07-2.47,3.65-.13.73-.32,1.81-.38,2.69C621.22,113.35,621.25,115,622.69,115.44Z" transform="translate(-211.45 -72.45)"/><path class="cls-6" d="M629.49,117.59a8.56,8.56,0,0,0,3.1-2.76c.74-1,1.88-2.64,1.39-3.92a1.31,1.31,0,0,0-1.23-.94c-1.36,0-2.31,1.36-2.88,2.44-.66,1.26-1.15,2.55-1.71,3.85a1,1,0,0,0,1.33,1.33Z" transform="translate(-211.45 -72.45)"/><path class="cls-6" d="M634.25,121.69c.63,1,3.17-.18,3.85-.52,1.2-.59,2.68-1.42,3-2.78a1.79,1.79,0,0,0-1.65-2c-1.27-.1-2.12.62-3.06,1.37a22.33,22.33,0,0,0-1.56,1.66C634.41,119.88,634,121.22,634.25,121.69Z" transform="translate(-211.45 -72.45)"/><path class="cls-6" d="M635.25,127.5c-.17,1.24,2.16,1.5,2.42,1.6a4.19,4.19,0,0,0,1.64.3,1.66,1.66,0,0,0,1.6-1.22,3.12,3.12,0,0,0,.05-.44,1.64,1.64,0,0,0-1-1.74,6.3,6.3,0,0,0-2.44-.37A2.26,2.26,0,0,0,635.25,127.5Z" transform="translate(-211.45 -72.45)"/><path class="cls-6" d="M638,135.77c1,.68,1.94,1.79,3.22,1.73a1.54,1.54,0,0,0,1.45-1.9c-.2-1.33-1.74-2.2-2.82-2.8s-2.23-1.28-3.5-.92S635.38,133.94,638,135.77Z" transform="translate(-211.45 -72.45)"/><path class="cls-6" d="M633.08,139.19a29.37,29.37,0,0,0,2.1,2.75c1,1.1,1.75,2.33,3.32,2.45a1.63,1.63,0,0,0,1.64-1.64c-.1-1.44-1.16-2.24-2.13-3.19a11.61,11.61,0,0,0-3.07-2.23c-1.12-.54-2.72.64-1.86,1.86Z" transform="translate(-211.45 -72.45)"/><path class="cls-6" d="M627.56,143.9c.27,1.78,1.41,7.23,4.29,5.55,1.5-.88.89-2.53.31-3.76a11.83,11.83,0,0,0-2.11-3.24c-1.13-1.18-2.69.08-2.49,1.45Z" transform="translate(-211.45 -72.45)"/><path class="cls-6" d="M621.84,145.68a5,5,0,0,0,.29,4.54,1.79,1.79,0,0,0,3.25-1.37,16,16,0,0,0-1.34-3.46c-.48-1.08-1.86-.55-2.2.29Z" transform="translate(-211.45 -72.45)"/><path class="cls-6" d="M599.84,148.68a5,5,0,0,0,.29,4.54,1.79,1.79,0,0,0,3.25-1.37,16,16,0,0,0-1.34-3.46c-.48-1.08-1.86-.55-2.2.29Z" transform="translate(-211.45 -72.45)"/><path class="cls-6" d="M614.83,146.93c-.05.13-.18.28-.25.42s-.21.53-.3.81a6.24,6.24,0,0,0-.39,1.86,2.11,2.11,0,0,0,4.22,0,5.49,5.49,0,0,0-.32-1.65l-.21-.63c-.09-.28-.32-.54-.41-.81a1.22,1.22,0,0,0-2.34,0Z" transform="translate(-211.45 -72.45)"/><path class="cls-6" d="M607.33,148.18c-.59,1.68-1.68,4.87,0,6.23a1.88,1.88,0,0,0,2.32,0c2.15-1.16.86-4.48.28-6.16a1.41,1.41,0,0,0-2.61-.07Z" transform="translate(-211.45 -72.45)"/><path class="cls-6" d="M592.87,147.75a10.2,10.2,0,0,0-1.31,1.8,3.24,3.24,0,0,0,.27,3.15,1.92,1.92,0,0,0,2.32.58,3,3,0,0,0,2-2.58,4.75,4.75,0,0,0-.2-3.16c-.7-1.13-1.68-1.31-3.1.21Z" transform="translate(-211.45 -72.45)"/><path class="cls-6" d="M586.76,147a7.57,7.57,0,0,0-2.79,3.64,2.23,2.23,0,0,0,3.85,2.24,9,9,0,0,0,1.14-4.62,1.47,1.47,0,0,0-2.2-1.26Z" transform="translate(-211.45 -72.45)"/><path class="cls-6" d="M577.26,147.27a8.44,8.44,0,0,0-1.87,2.17,2.31,2.31,0,0,0,.36,2.75,2.27,2.27,0,0,0,3.21,0c1.62-1.73,3.73-4.81,2.48-6.13C580.47,145.05,579,145.63,577.26,147.27Z" transform="translate(-211.45 -72.45)"/><path class="cls-6" d="M575.72,142.73c-.41-1.71-2.83-1.23-4-.71-1.3.59-3.18,1.47-3.82,2.82a2,2,0,0,0,2.27,3c1.33-.32,2.17-1.56,3.21-2.34.83-.62,2.61-1.43,2.3-2.73Z" transform="translate(-211.45 -72.45)"/><path class="cls-6" d="M571.82,135.07c-2.18-.41-6.74-.67-7.83,1.8a1.78,1.78,0,0,0,.63,2.39c1.19.64,2.28.32,3.54.1a17.52,17.52,0,0,0,3.66-.84c1.45-.6,1.95-3.08,0-3.45Z" transform="translate(-211.45 -72.45)"/><path class="cls-6" d="M573.45,128.3a16.5,16.5,0,0,0-3.55-1.05,6.39,6.39,0,0,0-4.5,0,1.69,1.69,0,0,0,0,2.9,11.51,11.51,0,0,0,4,1c1.33.17,2.93.42,4.07-.47a1.4,1.4,0,0,0,0-2.4Z" transform="translate(-211.45 -72.45)"/><path class="cls-3" d="M590,242.3c-.7-2-.46-4.63-1-6.75a12.56,12.56,0,0,0-2.36-4.16c-3.78-5-7.78-9.76-14.36-10.08-2.83-.14-6,1.53-8.09,3.87-8.91,5.66-19.57,13.53-17.52,24.76,1.13,6.17,5.95,8.81,11.79,8.89,4.1.05,8.08-1.56,12-2.51,3.32-.81,6.49.17,9.77.57,4.16.52,9.54-.06,11-4.84C592.27,248.59,591.21,245.59,590,242.3Z" transform="translate(-211.45 -72.45)"/><path class="cls-1" d="M559.25,248.05c-1.89.18-3.59,1.32-5.24,2.2-2,1.08-2.54,1.23-4.59,2.21s-.17,3.54,1.25,3c2.12-.79,2.54-1.47,4.23-2.58s3.64-2.12,5-3.63C560,248.88,560.14,248,559.25,248.05Z" transform="translate(-211.45 -72.45)"/><path class="cls-1" d="M561,243c-2,.55-4.15.1-6.22.12a14.7,14.7,0,0,0-6.48,1.28,1.32,1.32,0,0,0,.66,2.44c2.4-.24,4.67-1,7.11-1.07,1.89-.08,3.95-.2,5.55-1.29A.81.81,0,0,0,561,243Z" transform="translate(-211.45 -72.45)"/><path class="cls-1" d="M562.52,239.48c-1-1.21-2.71-1.14-4.13-1.64-2.06-.73-4.19-1.75-6.39-1.94a1.11,1.11,0,0,0-.78,1.88c3,2.38,7.11,2.64,10.78,3,.7.06.9-.82.52-1.26Z" transform="translate(-211.45 -72.45)"/><path class="cls-1" d="M564.5,234.48c-1.16.11-2.38-1.7-3-2.47a20.79,20.79,0,0,0-2.11-2.72,1.17,1.17,0,0,0-2,.88c.24,1.79,1.7,3,2.93,4.23s2.92,2.35,4.54,1.52a.78.78,0,0,0-.39-1.44Z" transform="translate(-211.45 -72.45)"/><path class="cls-1" d="M568.83,234.34c.71-1.64.23-3.06-.12-4.75-.42-2.08-.47-3.93-1.88-5.59-.35-.42-1.39.06-1.33.63a16.18,16.18,0,0,0,1,3.51c.49,1.58,1.5,4,1.15,5.68-.15.7.9,1.24,1.22.52Z" transform="translate(-211.45 -72.45)"/><path class="cls-1" d="M574,232.27c2.18-2.24,2.72-7.11,1.61-10a1.7,1.7,0,0,0-3.32.45c-.06,1.49.26,3,.29,4.47a36.3,36.3,0,0,1-.44,4.28,1.1,1.1,0,0,0,1.86.77Z" transform="translate(-211.45 -72.45)"/><path class="cls-1" d="M576.38,233.74c2.76-.9,4.81-3.84,6-6.34.32-.65-.38-1.57-1.08-1.08-2.29,1.62-3.75,4.39-5.46,6.57-.28.36,0,1,.49.85Z" transform="translate(-211.45 -72.45)"/><path class="cls-1" d="M577.7,238.48a17.63,17.63,0,0,0,7-4,1,1,0,0,0-.94-1.61,17.77,17.77,0,0,0-6.78,4.39.77.77,0,0,0,.74,1.27Z" transform="translate(-211.45 -72.45)"/><path class="cls-1" d="M579.43,243.14a37.11,37.11,0,0,0,4.82-2.37,30.59,30.59,0,0,1,4.54-2.1c.88-.34.54-2-.16-2.13-4.06-.82-7.28,2.69-9.85,5.49-.42.45,0,1.36.65,1.11Z" transform="translate(-211.45 -72.45)"/><path class="cls-1" d="M580.68,245.39c2.84-.69,5.47,1.49,8.28.86a.79.79,0,0,0,0-1.5c-2.49-.77-6.44-2.31-8.8-.58a.67.67,0,0,0,.52,1.22Z" transform="translate(-211.45 -72.45)"/><path class="cls-1" d="M578.16,246.84c3.41,2.49,6.72,6.65,11.09,7.24,1,.14,1.89-1.1,1-1.7-1.85-1.27-3.68-1.9-5.55-3.15a42.84,42.84,0,0,0-5.86-3.57.68.68,0,0,0-.68,1.18Z" transform="translate(-211.45 -72.45)"/><path class="cls-1" d="M574.06,247.69a11.47,11.47,0,0,0,2.81,5.37c1.21,1.44,2.63,3.19,4.42,3.86.63.23,1.6-.28,1.35-.92-.6-1.57-2.22-2.65-3.4-3.8a18.13,18.13,0,0,1-3.87-5.06c-.37-.78-1.45-.2-1.31.55Z" transform="translate(-211.45 -72.45)"/><path class="cls-1" d="M569.56,247.5a9.84,9.84,0,0,0,2.86,7.83.83.83,0,0,0,1.37-.8c-.49-2.49-2.83-4.41-2.85-7,0-.92-1.27-.86-1.38,0Z" transform="translate(-211.45 -72.45)"/><path class="cls-1" d="M562.57,250.19a21.07,21.07,0,0,0,2.75,6.46.79.79,0,0,0,1.44-.61c-.72-2.18-2.18-4-2.83-6.23a.71.71,0,0,0-1.36.38Z" transform="translate(-211.45 -72.45)"/><path class="cls-1" d="M560.2,250.68c-1.11,2.2-3.16,3.7-3.86,6.14-.17.62.69,1.2,1.14.66,1.62-1.94,3.28-3.78,3.88-6.31.16-.68-.82-1.15-1.16-.49Z" transform="translate(-211.45 -72.45)"/><path class="cls-6" d="M582.92,242.13a7.59,7.59,0,0,0-2.62-2.49c-2.8-1.67-1.3-4.59-1.59-7.2A5.5,5.5,0,0,0,571,228.5c-2.18.84-4.84,3.64-7.08,4.57-1.87.77-3.72.66-5.35,2a4.85,4.85,0,0,0-1.66,4.36,12.3,12.3,0,0,1-.58,6.72,5.68,5.68,0,0,0-.23,4c1.19,2.92,6,2.91,8.36,1.85,2.66-1.2,4.18-2.93,7.42-2.35,2.13.37,5.19,1,7.37.62C582.54,249.63,584.25,244.25,582.92,242.13Z" transform="translate(-211.45 -72.45)"/><path class="cls-6" d="M437.45,152.55h-.17a2,2,0,1,1,.24-4l-.12,2,.13-2a2,2,0,0,1,1.9,2.08A2,2,0,0,1,437.45,152.55Zm6.89-.9a2,2,0,0,1-.58-3.92l.58,1.92-.58-1.92a2,2,0,0,1,2.51,1.29,2,2,0,0,1-1.24,2.5l-.11,0A2,2,0,0,1,444.34,151.65Zm-13.8-.24a2.05,2.05,0,0,1-.8-.17,2,2,0,0,1-1.06-2.63,2,2,0,0,1,2.59-1.07l.07,0a2,2,0,0,1-.8,3.84ZM425.18,147a2,2,0,0,1-1.65-.88,2,2,0,0,1,.49-2.78,2,2,0,0,1,2.76.45l.06.08a2,2,0,0,1-1.66,3.13Zm31.2-2.49a2,2,0,0,1-1.55-.73,2,2,0,0,1,.24-2.77l.1-.09a2,2,0,1,1,1.21,3.59Zm-6,4a2,2,0,0,1-1.55-.73,2,2,0,0,1,.24-2.77l.1-.09a2,2,0,1,1,1.21,3.59Zm-29.09-7.39a2,2,0,0,1-1.65-.88,2,2,0,0,1,.5-2.78,2,2,0,0,1,2.75.46l.06.08a2,2,0,0,1-1.66,3.12Zm-3.89-5.88a2,2,0,0,1-1.7-.94,2,2,0,0,1,.63-2.78,2,2,0,0,1,2.74.62l0,0a2,2,0,0,1-.64,2.75A2.05,2.05,0,0,1,417.4,135.21Zm46.82-2.16a1.88,1.88,0,0,1-.47-.05,2,2,0,0,1-1.47-2.39v-.05a2,2,0,1,1,3.88.94A2,2,0,0,1,464.22,133.05Zm-2,6a1.88,1.88,0,0,1-.47-.05,2,2,0,0,1-1.47-2.39v-.05a2,2,0,1,1,3.88.94A2,2,0,0,1,462.22,139.05ZM414.88,128.7a2,2,0,0,1-.23-4,2,2,0,0,1,2.21,1.72v0a2,2,0,0,1-1.75,2.22Zm49.88-2.7h0a2,2,0,0,1-2-2V124a2,2,0,0,1,4,.1A2,2,0,0,1,464.76,126Zm-49.59-4.32a1.75,1.75,0,0,1-.46-.05,2,2,0,0,1-1.49-2.4,2,2,0,0,1,2.39-1.52,2,2,0,0,1,1.52,2.34s0,.08,0,.09A2,2,0,0,1,415.17,121.68ZM464.72,119a2,2,0,0,1-2-1.86s0-.09,0-.11a2,2,0,1,1,2.09,2Zm-47.08-3.92a1.92,1.92,0,0,1-.9-.21,2,2,0,0,1-.9-2.64l.06-.11a2,2,0,1,1,3.53,1.88l-1.77-.94,1.76,1A2,2,0,0,1,417.64,115.08Zm3-5a1.92,1.92,0,0,1-.9-.21,2,2,0,0,1-.9-2.64l.06-.11a2,2,0,1,1,3.53,1.88l-1.77-.94,1.76,1A2,2,0,0,1,420.64,110.08Zm6-5a1.92,1.92,0,0,1-.9-.21,2,2,0,0,1-.9-2.64l.06-.11a2,2,0,1,1,3.53,1.88l-1.77-.94,1.76,1A2,2,0,0,1,426.64,105.08Zm37,7a2,2,0,0,1-1.87-1.33l0-.07a2,2,0,1,1,3.8-1.26,2,2,0,0,1-1.25,2.55A2.17,2.17,0,0,1,463.67,112.05Zm-4.53-5.13a2,2,0,0,1-.93-.23l0,0a2,2,0,1,1,1,.25Zm-25.39-4.17a2.28,2.28,0,0,1-.44,0,2,2,0,0,1,.74-3.93l.17,0a2,2,0,0,1-.47,3.94Zm12.55-1.55a2,2,0,0,1-.41,0l-.09,0a2,2,0,0,1,.91-3.89,2,2,0,0,1,1.52,2.39A2,2,0,0,1,446.3,101.2Zm-6,0a2,2,0,0,1-.41,0l-.09,0a2,2,0,0,1,.91-3.89,2,2,0,0,1,1.52,2.39A2,2,0,0,1,440.3,101.2Zm12,2a2,2,0,0,1-.41,0l-.09,0a2,2,0,0,1,.91-3.89,2,2,0,0,1,1.52,2.39A2,2,0,0,1,452.3,103.2Z" transform="translate(-211.45 -72.45)"/><path class="cls-3" d="M439.12,140.46a2,2,0,0,1-2-1.79,2,2,0,0,1,1.73-2.19H439a2,2,0,1,1,.35,4Zm-6.92-.78a1.9,1.9,0,0,1-.86-.2l-.12-.06a2,2,0,0,1,1.89-3.53l-.95,1.77.95-1.76a2,2,0,0,1-.91,3.78Zm13.44-1.63a2,2,0,0,1-1.06-3.7l1.05,1.7-1-1.7a2,2,0,0,1,2.75.59,2,2,0,0,1-.54,2.74l-.11.07A2,2,0,0,1,445.64,138.05Zm-18.21-3.42a2,2,0,0,1-1-3.76,2,2,0,0,1,2.71.7l0,.07a2,2,0,0,1-.75,2.73A2,2,0,0,1,427.43,134.63Zm-2-6a2,2,0,0,1-1-3.76,2,2,0,0,1,2.71.7l0,.07a2,2,0,0,1-.75,2.73A2,2,0,0,1,425.43,128.63Zm0-7a2,2,0,0,1-1-3.76,2,2,0,0,1,2.71.7l0,.07a2,2,0,0,1-.75,2.73A2,2,0,0,1,425.43,121.63Zm25.35,11.63a2,2,0,0,1-1.63-3.13l.08-.11a2,2,0,0,1,3.16,2.46A2,2,0,0,1,450.78,133.26Zm2.82-6.4a2,2,0,0,1-.42,0,2,2,0,0,1-1.53-2.34s0-.08,0-.09a2,2,0,0,1,3.9.91A2,2,0,0,1,453.6,126.86Zm-.25-6.92a2,2,0,1,1,1.81-2.84l0,.09a2,2,0,0,1-1.85,2.75Zm-24.29-4.67a2,2,0,0,1-1.29-3.53,2,2,0,0,1,2.81.19,2,2,0,0,1-.13,2.78l-.1.08A2,2,0,0,1,429.06,115.27Zm19.22-.07a2,2,0,0,1-1-.26l-.07,0a2,2,0,1,1,1,.3Zm-6.59-2.33a2,2,0,0,1-.53-.07h0a2,2,0,1,1,.57.08Zm-6.47-.83a2,2,0,0,1-1.55-3.26,2,2,0,0,1,2.79-.34,2,2,0,0,1,.4,2.75l-.09.11A2,2,0,0,1,435.22,112Z" transform="translate(-211.45 -72.45)"/><path class="cls-1" d="M447.67,122.93c1.45-1.4.4-3.66-1.06-4.52a3.43,3.43,0,0,0-2.5-.13c-2.53.47-1.35-1.62-2.78-2.47-2.1-1.24-3.24.37-4.16,2a1.43,1.43,0,0,0-.23.2c-2.31,2.16-4.54.93-4.71,3.63a5.16,5.16,0,0,0,.95,3.29c1.32,2.12-.61,3.32-.09,5.31s2.68,3.49,4.73,2.56a6.78,6.78,0,0,0,1.58-1,3.82,3.82,0,0,1,3.31-.63,4.07,4.07,0,0,0,3.52-1,3.13,3.13,0,0,0,.63-2.8,11.68,11.68,0,0,0-.7-2.22C445.82,124.13,447.13,123.46,447.67,122.93Z" transform="translate(-211.45 -72.45)"/><path class="cls-9" d="M391.88,183.38c0,4.83,5,8.29,12.12,8.29s13.63-4.21,13.63-9-4.89-8.5-12-8.5S391.88,178.54,391.88,183.38Z" transform="translate(-211.45 -72.45)"/><path class="cls-1" d="M404.42,173.33c-6.84.42-12.53,2.94-13.27,9.83-.7,6.53,6.92,9.37,12.06,9.69,5.68.35,15.54-2.81,15.36-9.9C418.38,175.3,412.17,172.83,404.42,173.33Zm9.85,13.82c-2.75,2.9-8.36,3.71-12.14,3.48-5.33-.34-10.95-4.61-7.95-10.42,1.22-2.35,4.77-4.28,7.34-4.6a25.06,25.06,0,0,1,9.28.2A6.75,6.75,0,0,1,414.27,187.15Z" transform="translate(-211.45 -72.45)"/><path class="cls-1" d="M405.12,174.43a7.2,7.2,0,0,0,0-3.63,21.35,21.35,0,0,0-.59-4.08,1.07,1.07,0,0,0-2,0,8.79,8.79,0,0,0,.11,4,15.84,15.84,0,0,0,.73,4c.39.88,1.52.45,1.8-.23Z" transform="translate(-211.45 -72.45)"/><path class="cls-1" d="M396.66,176.34a13,13,0,0,0-2.06-2.89c-.76-.93-1.49-1.93-2.34-2.78a1.32,1.32,0,0,0-2.07,1.6,23.64,23.64,0,0,0,2.36,2.85l2.3,2.61c.94,1.05,2.3-.29,1.81-1.39Z" transform="translate(-211.45 -72.45)"/><path class="cls-1" d="M392.38,182.63a22.74,22.74,0,0,0-7,.35c-1.57.25-1,2.45.35,2.58a25.49,25.49,0,0,0,3.58-.41,5.43,5.43,0,0,0,3.42-1.15.82.82,0,0,0-.37-1.37Z" transform="translate(-211.45 -72.45)"/><path class="cls-1" d="M394.85,189.31a35.48,35.48,0,0,0-2.82,2.38,13.43,13.43,0,0,0-2.41,2.16c-.67,1,.61,2.09,1.53,1.54a16.56,16.56,0,0,0,2.45-2.13,8.14,8.14,0,0,0,2.42-3,.8.8,0,0,0-1.17-.9Z" transform="translate(-211.45 -72.45)"/><path class="cls-1" d="M403.2,191.45a35.41,35.41,0,0,0-1,4.57,18,18,0,0,0-.51,4.31,1.14,1.14,0,0,0,2.23.31,26.17,26.17,0,0,0,.9-9,.83.83,0,0,0-1.63-.22Z" transform="translate(-211.45 -72.45)"/><path class="cls-1" d="M410.84,190.63a12.09,12.09,0,0,0,2.59,3,11.76,11.76,0,0,0,3,2.37c.91.39,2.3-.51,1.55-1.55a17.59,17.59,0,0,0-2.84-2.53,18.15,18.15,0,0,0-3.26-2.31.77.77,0,0,0-1,1Z" transform="translate(-211.45 -72.45)"/><path class="cls-1" d="M417.3,185.71a17,17,0,0,0,4.26.67c1.1.12,3.15.58,4-.42.53-.65.46-1.92-.56-2.09a32.2,32.2,0,0,0-3.41,0,9.94,9.94,0,0,0-4.26.45.74.74,0,0,0,0,1.42Z" transform="translate(-211.45 -72.45)"/><path class="cls-1" d="M416.46,178.77c2.5-.84,4.62-2.77,6.62-4.44,1-.86-.31-2.54-1.42-1.84A25.65,25.65,0,0,0,419,174.6c-1.13.94-2.27,1.81-3.31,2.84a.8.8,0,0,0,.77,1.33Z" transform="translate(-211.45 -72.45)"/><path class="cls-1" d="M412.25,175.36c1.49-1.12,2.2-2.81,3.05-4.42s1.95-3.25,2.14-4.94a.94.94,0,0,0-1.41-.81c-1.34.85-2,2.5-2.78,3.85a18.23,18.23,0,0,0-2.46,5.2c-.14.75.69,1.7,1.46,1.12Z" transform="translate(-211.45 -72.45)"/><path class="cls-1" d="M407.17,178.33c-.84.5-2.84.34-3.84.5a35.74,35.74,0,0,0-4.5,1.67c-2,1-2.66,3.67-.5,5,3.17,2,8.5,2.33,11.84.17,1.66-1,3.83-3.5,2-5.17A7.71,7.71,0,0,0,404,179" transform="translate(-211.45 -72.45)"/><path class="cls-1" d="M407,177.84a22.77,22.77,0,0,1-3.7.18c-1.29.09-2.69.69-4,.91a4.64,4.64,0,0,0-4.09,3.46c-1.43,4.66,6,5.42,8.94,5.56s9.38-1.56,9.47-5.59c.1-4.5-6.9-5.61-10-3.94-.72.39-.18,1.33.52,1.22a11.31,11.31,0,0,1,4.74,0c2.48.63,3.81,2.54,1.8,4.64-2.16,2.25-5.84,2.37-8.69,1.83a3.73,3.73,0,0,1-3.14-2.53c-.37-1.27,1.43-2.37,2.19-2.87,2-1.32,4.35-.76,6.35-1.88a.52.52,0,0,0-.4-.94Z" transform="translate(-211.45 -72.45)"/><path class="cls-1" d="M386.09,88.91a22.16,22.16,0,0,0-5.34.59c-5.25,1.38-8.95,3.35-9.62,8.35-.7,5.27,5.7,5.34,9.28,4.77,4.41-.69,11.06-3,11.55-8.19C392.27,91.14,388.77,89.35,386.09,88.91Z" transform="translate(-211.45 -72.45)"/><path class="cls-3" d="M382.43,110.54l-1.72,0-1.63,0h-.59a1.5,1.5,0,0,1,0-3h.57l1.67,0,1.67,0a18.08,18.08,0,0,0,4.42-.43,1.44,1.44,0,0,1,1.75,1.1,1.49,1.49,0,0,1-1.06,1.81A20.47,20.47,0,0,1,382.43,110.54Zm-9.9-.94a1.58,1.58,0,0,1-.52-.09c-.28-.11-.56-.22-.84-.35a12.43,12.43,0,0,1-6.57-6.36,1.5,1.5,0,1,1,2.81-1.07,9.37,9.37,0,0,0,5,4.7c.21.1.42.18.64.26a1.5,1.5,0,0,1-.52,2.91Zm20.15-2.3a1.51,1.51,0,0,1-1.28-.7,1.47,1.47,0,0,1,.5-2l.27-.16a5.11,5.11,0,0,0,1.31-1,14,14,0,0,0,.91-1.3,11.64,11.64,0,0,0,1.45-3.84,1.5,1.5,0,0,1,2.94.57,14.59,14.59,0,0,1-1.83,4.8,14.3,14.3,0,0,1-1.16,1.65,7.61,7.61,0,0,1-2.07,1.61l-.26.15A1.55,1.55,0,0,1,392.68,107.3Zm-27-9.47h-.17a1.49,1.49,0,0,1-1.32-1.66l.05-.46c0-.34.08-.67.11-1,.19-1.83.41-4,1.73-5.67a20.82,20.82,0,0,1,1.67-1.88,1.5,1.5,0,1,1,2.12,2.13,17.79,17.79,0,0,0-1.44,1.61,8.26,8.26,0,0,0-1.09,4c0,.43-.08.78-.12,1.13l0,.46A1.51,1.51,0,0,1,365.67,97.83ZM397.39,94a1.49,1.49,0,0,1-1.45-1.13,10.12,10.12,0,0,0-3.55-5.18,5.82,5.82,0,0,0-1.14-.71,1.5,1.5,0,0,1,1.37-2.67,8.73,8.73,0,0,1,1.65,1,13,13,0,0,1,4.57,6.78,1.48,1.48,0,0,1-1.08,1.82A1.57,1.57,0,0,1,397.39,94Zm-21.88-8.11a1.5,1.5,0,0,1-.09-3c1-.21,2-.32,3-.43l1.55-.18.28,0a14.9,14.9,0,0,1,3.91-.25,2.05,2.05,0,0,1,1.75,1.14,1,1,0,0,1-.62,1.56,6.41,6.41,0,0,1-1.65.26,17.86,17.86,0,0,0-2.95.25l-.32,0-1.63.19c-1,.11-1.86.2-2.76.39A1.41,1.41,0,0,1,375.51,85.87Z" transform="translate(-211.45 -72.45)"/><path class="cls-6" d="M402.94,83.89c-2.45-2.3-4.25-5.2-7.08-7.1a25.31,25.31,0,0,0-10.79-4.14c-6.2-.91-14.13,1.28-18.92,5.67A22.39,22.39,0,0,0,357.09,85a12.89,12.89,0,0,0-2.89,8.71c.12,4.32-.46,9.08.4,13.3,1.64,8,11.7,8.74,17.89,10.79,7.49,2.47,15.2,2.33,21.63-2.73,5.36-4.22,12.77-6.28,14.48-13.51S408.17,88.78,402.94,83.89Zm2.39,15.49c-.87,6.24-6.53,7.38-11,10.64-5.74,4.15-10.22,6.39-17.5,5-2.81-.53-5.51-1.71-8.29-2.4-3.06-.76-5.92-1.38-8.39-3.52-3.12-2.68-1.79-7-1.64-10.47.15-3.21-.69-6.14.82-9.18a11.84,11.84,0,0,1,4.53-5.31c3.09-1.84,5.67-4.59,8.42-5.75a32.69,32.69,0,0,1,13.27-2.19c5.55.8,9.64,4,13.06,8.26,1.6,2,3.71,3.42,5.24,5.49C405.83,92.69,405.77,96.21,405.33,99.38Z" transform="translate(-211.45 -72.45)"/><path class="cls-1" d="M323.86,163.83c.13-1.92-2.17-2.84-3.83-2.5a3.36,3.36,0,0,0-1.93,1.51c-1.56,2-2.09-.26-3.72.06-2.39.49-2.14,2.35-1.73,4.08a1.53,1.53,0,0,0,0,.3c-.25,3-2.72,3.58-1,5.59a5.2,5.2,0,0,0,2.91,1.71c2.41.64,1.8,2.73,3.53,3.8s4.33.72,5.21-1.25a5.85,5.85,0,0,0,.48-1.74,3.67,3.67,0,0,1,2-2.58,3.86,3.86,0,0,0,1.9-3,3,3,0,0,0-1.43-2.39,11.51,11.51,0,0,0-2-1.1C323.31,165.87,323.81,164.55,323.86,163.83Z" transform="translate(-211.45 -72.45)"/><path class="cls-6" d="M318.12,185a2,2,0,0,1-2-1.71,1.91,1.91,0,0,1,1.73-2.09l.11,0a2,2,0,0,1,2.17,1.74A1.94,1.94,0,0,1,318.3,185Zm-6.92-.75a2,2,0,0,1-.86-.19l-.12,0a1.88,1.88,0,0,1-.82-2.59,2,2,0,0,1,2.71-.78l-.95,1.68.95-1.68a1.88,1.88,0,0,1,.87,2.56A2,2,0,0,1,311.2,184.26Zm13.44-1.55a2,2,0,0,1-1.7-.91,1.85,1.85,0,0,1,.64-2.63l1.05,1.63-1-1.63a2.07,2.07,0,0,1,2.75.57,1.84,1.84,0,0,1-.54,2.61l-.11.07A2.1,2.1,0,0,1,324.64,182.71Zm-18.21-3.27a2,2,0,0,1-1.74-1,1.89,1.89,0,0,1,.73-2.62,2,2,0,0,1,2.71.67l0,.07a1.86,1.86,0,0,1-.75,2.6A2.05,2.05,0,0,1,306.43,179.44Zm-2-5.73a2,2,0,0,1-1.74-1,1.89,1.89,0,0,1,.73-2.62,2,2,0,0,1,2.71.67l0,.06a1.87,1.87,0,0,1-.75,2.61A2.05,2.05,0,0,1,304.43,173.71Zm0-6.69a2,2,0,0,1-1.74-1,1.89,1.89,0,0,1,.73-2.62,2,2,0,0,1,2.71.67l0,.07a1.86,1.86,0,0,1-.75,2.6A2.05,2.05,0,0,1,304.43,167Zm25.35,11.11a2,2,0,0,1-1.18-.37,1.84,1.84,0,0,1-.45-2.62l.08-.1a2.06,2.06,0,0,1,2.81-.34,1.85,1.85,0,0,1,.35,2.68A2.07,2.07,0,0,1,329.78,178.13ZM332.6,172a2,2,0,0,1-.42-.05,1.89,1.89,0,0,1-1.53-2.24l0-.08a2,2,0,0,1,2.41-1.43,1.92,1.92,0,0,1,1.49,2.3A2,2,0,0,1,332.6,172Zm-.25-6.61a2,2,0,0,1-1.86-1.19,1.87,1.87,0,0,1,1-2.51,2.05,2.05,0,0,1,2.64,1,.25.25,0,0,0,0,.09,1.88,1.88,0,0,1-1.1,2.48A2,2,0,0,1,332.35,165.41Zm-24.29-4.47a2.06,2.06,0,0,1-1.53-.67,1.85,1.85,0,0,1,.24-2.69,2.08,2.08,0,0,1,2.81.17,1.84,1.84,0,0,1-.13,2.66l-.1.08A2,2,0,0,1,308.06,160.94Zm19.22-.07a2,2,0,0,1-1-.24l-.07,0a1.86,1.86,0,0,1-.71-2.61,2.06,2.06,0,0,1,2.74-.69,1.9,1.9,0,0,1,.74,2.62A2,2,0,0,1,327.28,160.87Zm-6.59-2.22a2.46,2.46,0,0,1-.53-.06l0,0a1.9,1.9,0,0,1-1.41-2.34,2,2,0,0,1,2.46-1.34,1.92,1.92,0,0,1,1.43,2.35A2,2,0,0,1,320.69,158.65Zm-6.47-.79a2,2,0,0,1-1.26-.43,1.85,1.85,0,0,1-.29-2.69,2.1,2.1,0,0,1,2.79-.32,1.84,1.84,0,0,1,.4,2.63l-.09.11A2,2,0,0,1,314.22,157.86Z" transform="translate(-211.45 -72.45)"/><path class="cls-3" d="M260.27,178.22c-2.45-2.29-4.25-5.2-7.07-7.1A25.54,25.54,0,0,0,242.41,167c-6.2-.9-14.14,1.29-18.92,5.67a22.28,22.28,0,0,0-9.06,6.73,12.89,12.89,0,0,0-2.9,8.7c.12,4.32-.46,9.09.4,13.3,1.64,8,11.71,8.75,17.89,10.79,7.5,2.48,15.2,2.34,21.63-2.73,5.36-4.22,12.77-6.28,14.49-13.5S265.51,183.12,260.27,178.22Zm2.39,15.49c-.87,6.24-6.52,7.38-11,10.64-5.74,4.16-10.22,6.39-17.49,5-2.81-.52-5.52-1.71-8.3-2.4-3.06-.76-5.91-1.38-8.39-3.51-3.12-2.69-1.79-7.05-1.63-10.47.14-3.22-.69-6.15.81-9.19a11.8,11.8,0,0,1,4.54-5.31c3.08-1.83,5.66-4.58,8.41-5.75a32.87,32.87,0,0,1,13.27-2.19c5.55.81,9.65,4.05,13.06,8.26,1.6,2,3.71,3.42,5.24,5.49C263.16,187,263.1,190.55,262.66,193.71Z" transform="translate(-211.45 -72.45)"/><path class="cls-6" d="M239.43,205.54l-1.72,0-1.63,0h-.59a1.5,1.5,0,0,1,0-3h.57l1.67,0,1.67,0a18.08,18.08,0,0,0,4.42-.43,1.44,1.44,0,0,1,1.75,1.1,1.49,1.49,0,0,1-1.06,1.81A20.47,20.47,0,0,1,239.43,205.54Zm-9.9-.94a1.58,1.58,0,0,1-.52-.09c-.28-.11-.56-.22-.84-.35a12.43,12.43,0,0,1-6.57-6.36,1.5,1.5,0,0,1,2.81-1.07,9.37,9.37,0,0,0,5,4.7c.21.1.42.18.64.26a1.5,1.5,0,0,1-.52,2.91Zm20.15-2.3a1.51,1.51,0,0,1-1.28-.7,1.47,1.47,0,0,1,.5-2l.27-.16a5.11,5.11,0,0,0,1.31-1,14,14,0,0,0,.91-1.3,11.64,11.64,0,0,0,1.45-3.84,1.5,1.5,0,0,1,2.94.57,14.59,14.59,0,0,1-1.83,4.8,14.3,14.3,0,0,1-1.16,1.65,7.61,7.61,0,0,1-2.07,1.61l-.26.15A1.55,1.55,0,0,1,249.68,202.3Zm-27-9.47h-.17a1.49,1.49,0,0,1-1.32-1.66l0-.46c0-.34.08-.67.11-1,.19-1.83.41-4,1.73-5.67a20.82,20.82,0,0,1,1.67-1.88,1.5,1.5,0,1,1,2.12,2.13,17.79,17.79,0,0,0-1.44,1.61,8.26,8.26,0,0,0-1.09,4c0,.43-.08.78-.12,1.13l-.05.46A1.51,1.51,0,0,1,222.67,192.83ZM254.39,189a1.49,1.49,0,0,1-1.45-1.13,10.12,10.12,0,0,0-3.55-5.18,5.82,5.82,0,0,0-1.14-.71,1.5,1.5,0,0,1,1.37-2.67,8.73,8.73,0,0,1,1.65,1,13,13,0,0,1,4.57,6.78,1.48,1.48,0,0,1-1.08,1.82A1.57,1.57,0,0,1,254.39,189Zm-21.88-8.11a1.5,1.5,0,0,1-.09-3c1-.21,2-.32,3-.43l1.55-.18.28,0a14.9,14.9,0,0,1,3.91-.25,2.05,2.05,0,0,1,1.75,1.14,1,1,0,0,1-.62,1.56,6.41,6.41,0,0,1-1.65.26,17.86,17.86,0,0,0-2.95.25l-.32.05-1.63.19c-1,.11-1.86.2-2.76.39A1.41,1.41,0,0,1,232.51,180.87Z" transform="translate(-211.45 -72.45)"/><path class="cls-1" d="M247.67,189.93c1.45-1.4.4-3.66-1.06-4.52a3.43,3.43,0,0,0-2.5-.13c-2.53.47-1.35-1.62-2.78-2.47-2.1-1.24-3.24.37-4.16,2a1.43,1.43,0,0,0-.23.2c-2.31,2.16-4.54.93-4.71,3.63a5.16,5.16,0,0,0,1,3.29c1.32,2.12-.61,3.32-.09,5.31s2.68,3.49,4.73,2.56a6.78,6.78,0,0,0,1.58-1,3.82,3.82,0,0,1,3.31-.63,4.07,4.07,0,0,0,3.52-1,3.13,3.13,0,0,0,.63-2.8,11.68,11.68,0,0,0-.7-2.22C245.82,191.13,247.13,190.46,247.67,189.93Z" transform="translate(-211.45 -72.45)"/><path class="cls-6" d="M477.12,368a2,2,0,0,1-2-1.72,1.9,1.9,0,0,1,1.73-2.08l.11,0a2,2,0,0,1,2.17,1.74A1.94,1.94,0,0,1,477.3,368Zm-6.92-.75a2,2,0,0,1-.86-.19l-.12-.05a1.88,1.88,0,0,1-.82-2.59,2,2,0,0,1,2.71-.78l-.95,1.68.95-1.68a1.88,1.88,0,0,1,.87,2.56A2,2,0,0,1,470.2,367.26Zm13.44-1.55a2,2,0,0,1-1.7-.91,1.85,1.85,0,0,1,.64-2.63l1.05,1.63-1-1.63a2.07,2.07,0,0,1,2.75.57,1.84,1.84,0,0,1-.54,2.61l-.11.07A2.1,2.1,0,0,1,483.64,365.71Zm-18.21-3.27a2,2,0,0,1-1.74-1,1.89,1.89,0,0,1,.73-2.62,2,2,0,0,1,2.71.67l0,.07a1.86,1.86,0,0,1-.75,2.6A2.05,2.05,0,0,1,465.43,362.44Zm-2-5.73a2,2,0,0,1-1.74-1,1.89,1.89,0,0,1,.73-2.62,2,2,0,0,1,2.71.67l0,.07a1.86,1.86,0,0,1-.75,2.6A2.05,2.05,0,0,1,463.43,356.71Zm0-6.69a2,2,0,0,1-1.74-1,1.89,1.89,0,0,1,.73-2.62,2,2,0,0,1,2.71.67l0,.07a1.86,1.86,0,0,1-.75,2.6A2.05,2.05,0,0,1,463.43,350Zm25.35,11.11a2,2,0,0,1-1.18-.37,1.84,1.84,0,0,1-.45-2.62l.08-.1a2.06,2.06,0,0,1,2.81-.34,1.85,1.85,0,0,1,.35,2.68A2.07,2.07,0,0,1,488.78,361.13Zm2.83-6.11a2,2,0,0,1-.43,0,1.89,1.89,0,0,1-1.53-2.24s0-.07,0-.08a2,2,0,0,1,2.41-1.43,1.92,1.92,0,0,1,1.49,2.3A2,2,0,0,1,491.61,355Zm-.26-6.61a2,2,0,0,1-1.86-1.19,1.87,1.87,0,0,1,1-2.51,2.05,2.05,0,0,1,2.64,1,.25.25,0,0,0,0,.09,1.88,1.88,0,0,1-1.1,2.48A2,2,0,0,1,491.35,348.41Zm-24.29-4.47a2.06,2.06,0,0,1-1.53-.67,1.85,1.85,0,0,1,.24-2.69,2.08,2.08,0,0,1,2.81.17,1.84,1.84,0,0,1-.13,2.66l-.1.08A2,2,0,0,1,467.06,343.94Zm19.22-.06a2,2,0,0,1-1-.25l-.07,0a1.86,1.86,0,0,1-.71-2.61,2.06,2.06,0,0,1,2.74-.69,1.9,1.9,0,0,1,.74,2.62A2,2,0,0,1,486.28,343.88Zm-6.59-2.23a2.46,2.46,0,0,1-.53-.06l0,0a1.9,1.9,0,0,1-1.41-2.34,2,2,0,0,1,2.46-1.34,1.92,1.92,0,0,1,1.43,2.35A2,2,0,0,1,479.69,341.65Zm-6.47-.79a2,2,0,0,1-1.26-.43,1.85,1.85,0,0,1-.29-2.69,2.1,2.1,0,0,1,2.79-.32,1.84,1.84,0,0,1,.4,2.63l-.09.11A2,2,0,0,1,473.22,340.86Z" transform="translate(-211.45 -72.45)"/><path class="cls-3" d="M484,352.5c0,3.22-1.33,6.5-5.83,7.5s-7.5-3.45-7.5-6.67a7.6,7.6,0,0,1,6-7C482.5,345.33,484,349.28,484,352.5Z" transform="translate(-211.45 -72.45)"/><text class="cls-10" transform="matrix(0.15, -0.99, 0.99, 0.15, 32.91, 416.04)"><tspan class="cls-11" x="6.77" y="0">O</tspan><tspan x="12.97" y="0">pen </tspan><tspan class="cls-12" x="28.09" y="0">D</tspan><tspan x="34.07" y="0">igital </tspan><tspan class="cls-13" x="51.97" y="0">E</tspan><tspan x="56.4" y="0">duc</tspan><tspan class="cls-14" x="68.88" y="0">a</tspan><tspan x="72.66" y="0">tion</tspan></text></svg>